<?xml version="1.0" standalone="no"?>
<!DOCTYPE svg PUBLIC "-//W3C//DTD SVG 20010904//EN"
 "http://www.w3.org/TR/2001/REC-SVG-20010904/DTD/svg10.dtd">
<svg version="1.0" xmlns="http://www.w3.org/2000/svg"
 width="556.000000pt" height="466.000000pt" viewBox="0 0 556.000000 466.000000"
 preserveAspectRatio="xMidYMid meet">

<g transform="translate(0.000000,466.000000) scale(0.100000,-0.100000)"
fill="#000000" stroke="none">
<path d="M3137 4333 c-10 -10 -8 -86 3 -103 7 -11 10 3 10 48 0 62 -1 67 -13
55z"/>
<path d="M3187 4333 c-4 -3 -7 -30 -7 -60 l0 -53 40 0 c42 0 60 18 60 59 0 41
-68 80 -93 54z m63 -27 c19 -24 8 -61 -19 -64 -29 -5 -39 9 -33 48 5 33 31 41
52 16z"/>
<path d="M3307 4333 c-4 -3 -7 -30 -7 -60 l0 -53 55 0 c40 0 57 4 61 15 8 19
48 19 64 0 7 -9 15 -14 17 -11 6 6 -38 106 -47 106 -4 0 -18 -21 -32 -47 -22
-44 -26 -47 -61 -46 -21 0 -40 3 -43 6 -12 12 8 27 37 27 16 0 29 5 29 10 0 6
-16 10 -36 10 -45 0 -42 24 4 28 18 2 32 7 32 13 0 10 -63 13 -73 2z m153 -48
c0 -8 -4 -15 -10 -15 -5 0 -10 7 -10 15 0 8 5 15 10 15 6 0 10 -7 10 -15z"/>
<path d="M3522 4284 c-2 -55 0 -62 19 -67 11 -3 28 -3 37 1 13 5 9 8 -13 12
-28 5 -30 9 -36 60 l-6 55 -1 -61z"/>
<path d="M3669 4330 c-14 -9 -24 -110 -10 -110 5 0 11 10 13 23 2 14 11 23 26
25 31 5 28 22 -4 22 -35 0 -26 23 12 30 l29 6 -27 5 c-15 3 -32 3 -39 -1z"/>
<path d="M3874 4329 c-2 -4 6 -9 17 -12 17 -5 20 -12 18 -48 -3 -29 1 -44 10
-47 10 -3 12 2 7 22 -9 35 2 74 22 79 10 2 -2 5 -26 8 -24 3 -45 2 -48 -2z"/>
<path d="M3997 4332 c-15 -3 -17 -12 -15 -60 3 -57 3 -57 37 -60 18 -2 38 1
44 7 8 8 0 11 -26 11 -30 0 -37 4 -37 20 0 16 7 20 32 20 28 0 33 13 5 16 -7
0 -20 2 -29 2 -30 3 -9 31 25 34 30 3 30 4 7 8 -14 3 -33 4 -43 2z"/>
<path d="M3763 4275 c0 -33 2 -45 4 -27 2 18 2 45 0 60 -2 15 -4 0 -4 -33z"/>
<path d="M3802 4273 c3 -57 3 -58 36 -61 36 -4 45 15 10 20 -20 3 -23 10 -26
51 -2 26 -8 47 -13 47 -6 0 -9 -24 -7 -57z"/>
<path d="M4091 4268 c1 -35 4 -53 6 -40 7 37 33 39 60 6 15 -19 23 -24 23 -13
0 8 -5 20 -11 26 -8 8 -7 16 2 30 20 33 5 53 -41 53 l-40 0 1 -62z m67 30 c3
-13 -3 -18 -22 -18 -27 0 -41 14 -31 31 10 16 49 6 53 -13z"/>
<path d="M909 4308 c-9 -23 -13 -3183 -4 -3198 3 -5 177 -9 438 -10 238 0 648
-2 912 -5 1397 -14 2245 -16 2245 -6 0 7 -34 11 -92 12 -646 3 -1175 12 -1185
20 -7 7 -14 6 -19 -2 -5 -9 -265 -10 -1128 -5 -617 4 -1131 10 -1143 13 l-22
5 5 1031 c3 568 7 1038 9 1045 3 6 18 12 35 12 16 0 30 5 30 10 0 6 -16 10
-35 10 -41 0 -43 7 -11 38 30 28 83 107 128 192 20 36 55 101 78 145 62 116
131 214 183 263 38 34 54 42 84 42 62 0 137 -52 268 -185 66 -67 184 -187 261
-267 78 -79 169 -162 202 -184 34 -21 63 -46 65 -55 4 -14 20 -17 101 -17 53
0 96 3 96 9 0 5 -7 9 -15 9 -27 0 -15 15 37 45 69 40 140 99 278 233 63 61
122 111 132 112 9 0 96 -82 193 -182 148 -153 175 -186 170 -205 -4 -18 -1
-23 14 -23 11 0 36 -20 58 -47 21 -27 40 -50 43 -53 12 -11 178 -246 187 -265
6 -11 16 -56 22 -100 7 -44 26 -156 41 -250 16 -93 41 -240 55 -325 48 -288
145 -773 165 -825 5 -14 14 -25 20 -25 13 0 13 7 -4 66 -47 157 -105 451 -162
814 -48 310 -83 522 -90 543 -24 75 114 -127 298 -438 158 -266 263 -445 320
-545 85 -147 148 -249 159 -256 26 -15 18 11 -20 71 -22 36 -41 68 -41 70 0 3
-17 31 -37 62 -20 32 -54 87 -74 123 -158 280 -245 426 -410 690 -44 69 -79
131 -79 137 0 7 16 15 35 19 24 4 35 12 35 23 0 10 47 55 107 104 l108 87 62
0 c35 0 63 4 63 10 0 6 -29 10 -66 10 -65 0 -66 0 -142 -62 -42 -34 -91 -75
-109 -91 -19 -18 -38 -27 -47 -24 -10 4 -21 -4 -33 -23 -9 -17 -22 -30 -28
-30 -5 1 -34 39 -64 86 -50 79 -54 91 -72 202 -20 125 -43 247 -85 462 -42
214 -43 195 8 206 31 7 43 14 43 27 0 11 24 36 57 60 31 23 83 63 116 89 55
44 63 47 113 45 31 -1 54 2 54 8 0 12 -109 9 -134 -4 -9 -6 -64 -46 -120 -91
-81 -62 -107 -78 -117 -69 -11 9 -17 3 -31 -25 -17 -37 -31 -46 -37 -23 -53
181 -92 268 -129 284 -12 5 -33 6 -47 2 -14 -4 -49 -7 -77 -8 -29 -1 -53 -5
-53 -11 0 -5 7 -10 15 -10 26 0 16 -14 -38 -50 -28 -19 -89 -71 -135 -115 -62
-59 -87 -77 -97 -70 -170 119 -280 181 -377 216 -21 7 -39 19 -40 26 -3 16
-90 19 -928 28 -300 4 -547 8 -549 11 -2 2 -5 83 -5 179 -1 96 -4 175 -8 175
-5 0 -8 -1 -9 -2z m411 -393 c0 -3 -24 -34 -52 -69 -44 -53 -218 -348 -218
-369 0 -13 -114 -177 -122 -177 -9 0 -10 558 -1 598 5 22 6 22 199 22 107 0
194 -2 194 -5z m1025 -24 c131 -32 213 -68 331 -147 62 -41 117 -80 123 -88
16 -19 -263 -288 -365 -352 -164 -102 -237 -69 -525 238 -198 211 -291 303
-339 334 -22 15 -40 31 -40 37 0 6 125 7 368 3 314 -5 379 -9 447 -25z m870
-3 c0 -9 4 -20 8 -24 4 -4 7 5 7 19 0 37 24 34 47 -5 41 -71 72 -181 133 -462
36 -164 38 -181 23 -191 -15 -11 -15 -13 3 -23 15 -8 22 -30 33 -99 7 -48 17
-107 23 -131 6 -23 8 -45 6 -48 -3 -2 -32 30 -64 73 -32 43 -80 105 -106 137
-26 33 -48 64 -48 69 0 5 -11 18 -25 29 -14 11 -25 30 -25 44 0 17 -5 24 -20
24 -11 0 -20 4 -20 9 0 5 -75 85 -166 177 l-166 169 64 58 c172 157 293 229
293 175z"/>
<path d="M3216 3833 c-9 -10 -7 -71 3 -77 5 -3 11 12 13 35 4 39 -2 55 -16 42z"/>
<path d="M3218 3734 c-11 -11 -10 -82 1 -89 5 -3 12 -2 14 2 7 13 -7 95 -15
87z"/>
<path d="M3210 3581 c0 -22 5 -43 10 -46 6 -4 10 12 10 39 0 25 -4 46 -10 46
-5 0 -10 -18 -10 -39z"/>
<path d="M3210 3470 c0 -22 5 -40 10 -40 6 0 10 18 10 40 0 22 -4 40 -10 40
-5 0 -10 -18 -10 -40z"/>
<path d="M3210 3360 c0 -22 5 -40 10 -40 6 0 10 18 10 40 0 22 -4 40 -10 40
-5 0 -10 -18 -10 -40z"/>
<path d="M3316 3221 c-9 -13 65 -24 77 -12 6 6 7 11 2 12 -6 0 -24 2 -42 5
-18 2 -34 0 -37 -5z"/>
<path d="M2913 4278 c-4 -7 -40 -69 -79 -138 -49 -86 -76 -125 -87 -124 -16 2
-22 -10 -29 -61 -2 -15 -12 -21 -41 -23 -20 -2 -35 -7 -32 -13 8 -13 79 -11
92 2 8 8 13 8 17 0 9 -14 86 -15 86 -1 0 6 -18 10 -40 10 -42 0 -50 9 -25 30
9 7 13 20 10 28 -3 8 8 38 23 66 16 28 46 83 67 121 52 97 50 95 111 95 30 0
54 5 54 10 0 15 -117 13 -127 -2z"/>
<path d="M196 4173 c-3 -16 -8 -38 -12 -50 -4 -16 -2 -23 7 -23 12 0 14 -71
11 -425 -2 -284 1 -425 8 -425 7 0 10 142 10 425 0 371 2 425 15 425 19 0 19
5 -1 57 -19 50 -29 54 -38 16z"/>
<path d="M546 3984 c-20 -20 -21 -88 -1 -104 20 -17 54 -3 61 26 14 57 -27
111 -60 78z m39 -50 c0 -28 -4 -39 -15 -39 -16 0 -26 45 -16 72 11 28 31 7 31
-33z"/>
<path d="M720 3975 c0 -8 -9 -15 -20 -15 -10 0 -24 -9 -30 -20 -16 -30 4 -60
40 -60 30 0 30 1 30 55 0 30 -4 55 -10 55 -5 0 -10 -7 -10 -15z m0 -61 c0 -15
-6 -24 -15 -24 -21 0 -30 27 -15 45 16 19 30 10 30 -21z"/>
<path d="M760 3936 c0 -58 15 -75 54 -60 39 15 27 84 -15 84 -11 0 -19 7 -19
15 0 8 -4 15 -10 15 -5 0 -10 -24 -10 -54z m55 -21 c0 -11 -8 -21 -17 -23 -14
-3 -18 3 -18 23 0 20 4 26 18 23 9 -2 17 -12 17 -23z"/>
<path d="M2462 3932 c-23 -2 -40 -7 -37 -13 8 -12 82 -12 90 0 8 14 -4 17 -53
13z"/>
<path d="M2542 3934 c-6 -3 -10 -10 -6 -15 7 -12 81 -12 89 1 3 6 -2 10 -12
10 -10 0 -27 2 -38 5 -11 2 -26 2 -33 -1z"/>
<path d="M2860 3920 c0 -5 20 -10 45 -10 25 0 45 5 45 10 0 6 -20 10 -45 10
-25 0 -45 -4 -45 -10z"/>
<path d="M2970 3920 c0 -5 20 -10 45 -10 25 0 45 5 45 10 0 6 -20 10 -45 10
-25 0 -45 -4 -45 -10z"/>
<path d="M3894 3894 c-19 -29 -11 -69 17 -87 22 -14 69 0 69 20 0 15 -2 14
-19 -1 -25 -23 -61 -6 -61 28 0 35 26 53 52 37 24 -15 35 -7 18 14 -20 24 -57
18 -76 -11z"/>
<path d="M4008 3915 c-4 -6 -3 -35 2 -65 4 -30 8 -45 9 -34 2 45 61 59 61 15
0 -11 5 -23 10 -26 6 -4 10 17 10 55 0 38 -4 59 -10 55 -5 -3 -10 -15 -10 -26
0 -32 -52 -22 -60 11 -3 14 -9 20 -12 15z"/>
<path d="M4137 3913 c-4 -3 -7 -30 -7 -60 l0 -53 40 0 c22 0 40 5 40 10 0 6
-16 10 -36 10 -42 0 -43 23 -1 28 34 4 35 20 2 24 -37 4 -35 22 3 26 17 2 32
7 32 13 0 10 -63 13 -73 2z"/>
<path d="M4246 3912 c-2 -4 -6 -30 -7 -57 l-3 -50 39 0 40 0 1 45 c1 25 -3 51
-9 58 -10 13 -53 17 -61 4z m54 -27 c0 -9 -9 -15 -25 -15 -24 0 -32 10 -18 23
12 13 43 7 43 -8z m7 -51 c5 -14 -22 -25 -42 -18 -8 4 -15 13 -15 21 0 17 51
14 57 -3z"/>
<path d="M4410 3893 l-22 -28 -19 24 c-28 34 -34 20 -9 -22 11 -19 19 -40 18
-47 -2 -7 3 -15 11 -18 10 -3 12 0 7 13 -4 12 3 32 19 57 31 47 27 62 -5 21z"/>
<path d="M4472 3909 c-32 -12 -25 -41 16 -58 17 -8 32 -18 32 -23 0 -15 -30
-20 -45 -8 -17 14 -31 8 -20 -9 8 -14 72 -14 80 -1 12 20 -6 48 -35 54 -17 3
-30 10 -30 16 0 17 29 23 45 10 12 -10 15 -10 15 3 0 11 -23 30 -33 26 -1 0
-12 -4 -25 -10z"/>
<path d="M4560 3855 c0 -30 5 -55 10 -55 6 0 10 11 10 25 0 21 5 25 30 25 25
0 30 -4 30 -25 0 -14 5 -25 10 -25 6 0 10 25 10 55 0 30 -4 55 -10 55 -5 0
-10 -9 -10 -20 0 -15 -7 -20 -26 -20 -17 0 -28 6 -31 20 -10 39 -23 19 -23
-35z"/>
<path d="M4682 3853 l3 -57 43 -2 c23 -1 42 2 42 7 0 5 -16 9 -35 9 -28 0 -35
4 -35 20 0 16 7 20 33 21 l32 1 -30 7 c-43 9 -39 35 6 39 34 3 36 1 60 -50 13
-29 29 -52 34 -52 10 1 37 50 50 94 7 22 6 23 -8 12 -9 -8 -21 -29 -28 -49
-13 -39 -21 -35 -39 20 l-12 37 -59 0 -60 0 3 -57z"/>
<path d="M4944 3896 c-8 -21 1 -97 12 -94 5 2 7 11 6 21 -2 10 3 18 12 18 29
3 34 4 42 12 4 4 -4 7 -19 7 -14 0 -28 4 -32 9 -7 12 32 34 45 26 5 -3 11 -1
15 5 4 6 -10 10 -35 10 -25 0 -43 -5 -46 -14z"/>
<path d="M5050 3849 c0 -34 2 -60 4 -58 9 9 13 110 5 115 -5 3 -9 -23 -9 -57z"/>
<path d="M5097 3899 c-5 -9 -7 -36 -5 -60 3 -42 5 -44 36 -47 18 -2 32 1 32 7
0 6 -11 11 -24 11 -23 0 -25 4 -28 53 -2 34 -6 46 -11 36z"/>
<path d="M5170 3900 c0 -5 7 -10 15 -10 11 0 15 -12 15 -51 0 -31 4 -48 10
-44 6 3 10 26 10 51 0 32 4 44 15 44 8 0 15 5 15 10 0 6 -18 10 -40 10 -22 0
-40 -4 -40 -10z"/>
<path d="M5274 3896 c-3 -7 -4 -33 -2 -57 3 -44 3 -44 43 -46 35 -1 36 -1 10
5 -42 10 -47 42 -6 42 17 0 31 5 31 10 0 6 -13 10 -30 10 -20 0 -30 5 -30 15
0 10 10 15 30 15 17 0 30 5 30 10 0 16 -70 12 -76 -4z"/>
<path d="M5387 3903 c-11 -10 -8 -113 3 -113 6 0 10 11 10 25 0 15 6 25 14 25
8 0 23 -11 34 -25 26 -33 37 -32 15 2 -13 19 -14 28 -5 31 22 7 14 49 -10 56
-30 8 -53 8 -61 -1z m69 -24 c8 -13 -15 -30 -36 -26 -8 1 -16 10 -18 20 -3 12
3 17 22 17 14 0 28 -5 32 -11z"/>
<path d="M4280 3728 c0 -4 7 -8 15 -8 11 0 15 -12 15 -50 0 -27 5 -50 10 -50
6 0 10 20 10 45 0 38 4 47 23 55 27 11 24 12 -30 14 -24 1 -43 -1 -43 -6z"/>
<path d="M4150 3711 c-15 -29 -12 -84 6 -107 14 -18 15 -18 8 6 -8 27 -7 74 2
103 7 23 -3 22 -16 -2z"/>
<path d="M4207 3690 c-26 -37 -27 -40 -8 -40 11 0 25 -8 30 -17 9 -16 12 -16
21 -3 6 8 8 24 5 35 -2 11 -5 30 -5 43 0 32 -11 27 -43 -18z"/>
<path d="M4380 3675 c0 -54 15 -77 22 -32 2 16 11 23 31 25 23 3 27 0 27 -22
0 -14 5 -26 10 -26 6 0 10 25 10 55 0 30 -4 55 -10 55 -5 0 -10 -9 -10 -20 0
-16 -7 -20 -30 -20 -23 0 -30 4 -30 20 0 11 -4 20 -10 20 -5 0 -10 -25 -10
-55z"/>
<path d="M4566 3714 c-22 -22 -20 -67 4 -89 27 -25 71 -10 84 27 20 56 -48
103 -88 62z m58 -7 c12 -9 17 -23 14 -42 -2 -24 -8 -31 -30 -33 -38 -4 -56 30
-33 64 18 28 24 29 49 11z"/>
<path d="M4681 3675 c0 -30 5 -55 10 -55 5 0 9 9 9 19 0 33 18 33 41 2 12 -17
26 -28 31 -25 5 3 2 14 -7 24 -13 15 -14 22 -4 38 20 32 5 52 -40 52 l-40 0 0
-55z m67 23 c3 -13 -3 -18 -22 -18 -20 0 -26 5 -26 21 0 15 5 20 22 17 13 -2
24 -11 26 -20z"/>
<path d="M4844 3716 c-3 -7 -4 -33 -2 -57 3 -42 5 -44 36 -47 18 -2 40 2 48 9
20 16 18 73 -4 92 -23 21 -71 22 -78 3z m76 -26 c15 -28 -4 -60 -35 -60 -22 0
-25 4 -25 40 0 36 3 40 25 40 14 0 29 -8 35 -20z"/>
<path d="M4964 3716 c-3 -7 -4 -33 -2 -57 3 -44 3 -44 46 -47 26 -2 42 1 42 8
0 6 -8 10 -17 9 -36 -3 -53 1 -53 15 0 15 27 29 40 21 5 -3 11 -1 15 5 4 6 -6
10 -25 10 -25 0 -31 4 -28 18 3 12 12 16 31 15 15 -1 27 2 27 8 0 15 -70 11
-76 -5z"/>
<path d="M5077 3723 c-11 -10 -8 -113 3 -113 6 0 10 11 10 25 0 33 23 32 48
-2 11 -16 24 -25 28 -21 4 4 2 14 -5 21 -6 9 -8 27 -5 47 5 22 3 35 -7 41 -17
10 -63 12 -72 2z m63 -28 c0 -9 -9 -15 -25 -15 -16 0 -25 6 -25 15 0 9 9 15
25 15 16 0 25 -6 25 -15z"/>
<path d="M5197 3695 c9 -39 9 -64 -1 -95 -6 -20 -6 -22 4 -13 20 19 24 95 6
118 -16 19 -16 19 -9 -10z"/>
<path d="M4225 3540 c-5 -9 -1 -10 15 -5 20 6 22 5 16 -18 -3 -14 -2 -29 4
-32 5 -3 10 -13 10 -21 0 -12 -7 -14 -32 -9 -25 5 -30 4 -22 -5 6 -6 24 -10
40 -8 24 2 29 7 26 28 -1 14 -3 36 -5 50 -2 27 -39 41 -52 20z"/>
<path d="M4410 3535 c0 -8 -8 -15 -18 -15 -24 0 -42 -19 -42 -46 0 -28 21 -45
48 -37 19 5 22 12 22 59 0 30 -2 54 -5 54 -3 0 -5 -7 -5 -15z m-6 -51 c7 -19
-1 -34 -19 -34 -18 0 -28 17 -21 35 7 20 32 19 40 -1z"/>
<path d="M4443 3496 c-1 -51 0 -54 25 -59 33 -6 52 8 52 37 0 27 -18 46 -42
46 -10 0 -18 7 -18 15 0 8 -4 15 -8 15 -4 0 -8 -24 -9 -54z m57 -21 c0 -25
-23 -35 -35 -15 -10 16 2 40 20 40 9 0 15 -9 15 -25z"/>
<path d="M4587 3543 c-11 -10 -8 -113 3 -113 6 0 10 11 10 24 0 45 31 38 59
-12 5 -9 13 -14 17 -10 4 4 1 15 -6 23 -10 12 -10 21 -1 41 9 20 9 30 0 40
-12 14 -70 19 -82 7z m68 -23 c0 -18 -33 -26 -47 -12 -6 6 -7 15 -3 22 10 16
50 8 50 -10z"/>
<path d="M4707 3543 c-11 -10 -8 -101 3 -108 6 -4 10 17 10 54 0 62 -1 66 -13
54z"/>
<path d="M4751 3488 c0 -54 2 -59 11 -35 7 19 17 27 33 27 32 0 49 23 35 49
-8 15 -21 21 -45 21 l-35 0 1 -62z m57 40 c16 -16 15 -25 -4 -32 -24 -9 -47
13 -33 30 14 17 22 17 37 2z"/>
<path d="M4859 3528 c-4 -66 -3 -88 6 -88 6 -1 11 8 13 20 2 13 11 20 26 20
33 0 50 23 36 49 -8 15 -21 21 -45 21 -29 0 -35 -4 -36 -22z m71 -17 c0 -14
-32 -23 -43 -12 -5 5 -7 17 -3 26 4 13 10 14 26 5 11 -6 20 -15 20 -19z"/>
<path d="M5067 3543 c-4 -3 -7 -30 -7 -60 l0 -53 43 1 c38 1 39 2 12 8 -38 8
-48 41 -11 41 14 0 28 5 31 10 4 6 -7 10 -24 10 -21 0 -31 5 -31 15 0 9 9 15
24 15 14 0 28 5 31 10 7 11 -57 14 -68 3z"/>
<path d="M4972 3488 l-2 -58 37 0 c20 0 33 3 29 7 -4 4 -17 8 -29 8 -19 0 -23
7 -28 50 l-6 50 -1 -57z"/>
<path d="M527 3273 c-13 -13 -7 -21 13 -16 21 6 28 -11 9 -23 -8 -5 -6 -10 5
-16 9 -5 16 -16 16 -25 0 -12 -7 -14 -31 -9 -27 5 -30 4 -19 -9 15 -19 44 -19
58 -2 13 16 4 88 -12 99 -14 10 -31 10 -39 1z"/>
<path d="M706 3268 c-4 -10 -14 -18 -21 -18 -6 0 -20 -9 -30 -20 -25 -28 -7
-70 30 -70 31 0 37 14 33 76 -3 35 -6 44 -12 32z m-8 -66 c2 -14 -2 -22 -12
-22 -19 0 -29 17 -22 36 8 22 30 12 34 -14z"/>
<path d="M742 3225 c3 -59 3 -60 33 -60 23 0 30 5 35 25 7 25 -13 60 -33 60
-5 0 -16 8 -23 18 -12 15 -14 9 -12 -43z m53 -21 c0 -10 -8 -20 -17 -22 -18
-3 -26 27 -11 42 12 11 28 0 28 -20z"/>
<path d="M1010 3230 c0 -5 20 -10 45 -10 25 0 45 5 45 10 0 6 -20 10 -45 10
-25 0 -45 -4 -45 -10z"/>
<path d="M1120 3230 c0 -5 20 -10 45 -10 25 0 45 5 45 10 0 6 -20 10 -45 10
-25 0 -45 -4 -45 -10z"/>
<path d="M1230 3230 c0 -5 18 -10 40 -10 22 0 40 5 40 10 0 6 -18 10 -40 10
-22 0 -40 -4 -40 -10z"/>
<path d="M1340 3230 c0 -5 18 -10 40 -10 22 0 40 5 40 10 0 6 -18 10 -40 10
-22 0 -40 -4 -40 -10z"/>
<path d="M1455 3230 c-4 -6 10 -10 34 -10 23 0 41 5 41 10 0 6 -15 10 -34 10
-19 0 -38 -4 -41 -10z"/>
<path d="M1560 3230 c0 -5 21 -10 46 -10 25 0 43 4 40 8 -7 12 -86 14 -86 2z"/>
<path d="M1675 3230 c-3 -5 3 -11 14 -11 61 -4 83 1 51 11 -36 11 -58 11 -65
0z"/>
<path d="M1785 3220 c7 -11 75 -10 75 2 0 4 -18 8 -41 8 -23 0 -38 -4 -34 -10z"/>
<path d="M1890 3220 c0 -5 18 -10 40 -10 22 0 40 5 40 10 0 6 -18 10 -40 10
-22 0 -40 -4 -40 -10z"/>
<path d="M1995 3220 c3 -5 24 -10 46 -10 21 0 39 5 39 10 0 6 -21 10 -46 10
-27 0 -43 -4 -39 -10z"/>
<path d="M2100 3220 c0 -5 20 -10 45 -10 25 0 45 5 45 10 0 6 -20 10 -45 10
-25 0 -45 -4 -45 -10z"/>
<path d="M2430 3220 c0 -5 20 -10 45 -10 25 0 45 5 45 10 0 6 -20 10 -45 10
-25 0 -45 -4 -45 -10z"/>
<path d="M2540 3220 c0 -5 20 -10 45 -10 25 0 45 5 45 10 0 6 -20 10 -45 10
-25 0 -45 -4 -45 -10z"/>
<path d="M2650 3220 c0 -5 20 -10 45 -10 25 0 45 5 45 10 0 6 -20 10 -45 10
-25 0 -45 -4 -45 -10z"/>
<path d="M2760 3220 c0 -5 20 -10 45 -10 25 0 45 5 45 10 0 6 -20 10 -45 10
-25 0 -45 -4 -45 -10z"/>
<path d="M2865 3220 c-4 -6 13 -10 44 -10 28 0 51 5 51 10 0 6 -20 10 -44 10
-25 0 -48 -4 -51 -10z"/>
<path d="M2980 3220 c0 -5 21 -10 46 -10 27 0 43 4 39 10 -3 6 -24 10 -46 10
-21 0 -39 -4 -39 -10z"/>
<path d="M3094 3219 c-3 -5 16 -9 41 -9 25 0 44 4 41 9 -3 5 -22 9 -41 9 -19
0 -38 -4 -41 -9z"/>
<path d="M375 3210 c-4 -6 12 -10 40 -10 28 0 44 4 40 10 -3 6 -21 10 -40 10
-19 0 -37 -4 -40 -10z"/>
<path d="M3210 3145 c0 -25 5 -45 10 -45 6 0 10 20 10 45 0 25 -4 45 -10 45
-5 0 -10 -20 -10 -45z"/>
<path d="M191 3126 c-7 -8 -10 -20 -6 -26 3 -5 -1 -10 -9 -10 -9 0 -16 -4 -16
-10 0 -5 25 -10 56 -10 l55 0 -3 33 c-3 28 -7 32 -34 35 -18 2 -36 -3 -43 -12z
m59 -16 c0 -13 -7 -20 -19 -20 -22 0 -35 15 -26 30 12 19 45 11 45 -10z"/>
<path d="M3216 3064 c-9 -24 -7 -62 4 -69 6 -4 10 12 10 39 0 48 -4 56 -14 30z"/>
<path d="M172 3039 c9 -5 15 -15 12 -23 -7 -19 21 -38 53 -34 23 2 29 8 31 36
l3 32 -58 0 c-43 -1 -54 -3 -41 -11z m76 -28 c-2 -9 -11 -17 -21 -19 -21 -4
-35 27 -17 38 19 12 42 0 38 -19z"/>
<path d="M3210 2930 c0 -22 5 -40 10 -40 6 0 10 18 10 40 0 22 -4 40 -10 40
-5 0 -10 -18 -10 -40z"/>
<path d="M4170 2929 c0 -30 -2 -31 -30 -25 -38 7 -39 -2 -1 -15 16 -6 31 -19
34 -30 6 -21 23 -24 60 -10 21 8 24 15 21 52 -3 46 -15 59 -56 59 -25 0 -28
-4 -28 -31z m59 8 c13 -16 5 -27 -21 -27 -11 0 -18 7 -18 20 0 23 22 27 39 7z
m1 -52 c0 -1 -7 -8 -15 -15 -13 -10 -15 -9 -15 8 0 15 5 20 15 16 8 -4 15 -7
15 -9z"/>
<path d="M4280 2913 c0 -53 12 -73 45 -73 33 0 45 20 44 75 l-2 50 -6 -48
c-11 -79 -61 -89 -61 -12 0 24 -4 47 -10 50 -6 4 -10 -13 -10 -42z"/>
<path d="M4408 2940 c15 -15 22 -33 23 -63 1 -23 4 -33 6 -22 3 11 10 26 15
32 6 7 7 20 4 29 -4 10 1 22 11 30 16 12 12 13 -31 14 l-50 0 22 -20z"/>
<path d="M4490 2950 c0 -5 9 -14 20 -20 15 -8 20 -21 20 -51 0 -23 4 -38 10
-34 5 3 9 21 8 40 -1 21 6 43 17 55 18 20 18 20 -28 20 -26 0 -47 -4 -47 -10z"/>
<path d="M4607 2953 c-4 -3 -7 -30 -7 -60 0 -50 1 -53 25 -53 14 0 25 5 25 10
0 6 -6 9 -12 8 -7 -2 -14 7 -16 20 -3 20 0 22 21 17 14 -4 28 -2 31 4 5 7 -4
11 -23 11 -20 0 -31 5 -31 14 0 15 27 29 40 21 5 -3 11 -1 15 5 7 11 -57 14
-68 3z"/>
<path d="M4717 2953 c-11 -10 -8 -113 3 -113 6 0 10 11 10 25 0 14 5 25 11 25
6 0 20 -11 31 -25 26 -33 43 -32 21 2 -13 19 -14 28 -5 31 19 6 14 40 -7 52
-22 11 -54 13 -64 3z m58 -33 c0 -8 -10 -16 -22 -18 -18 -3 -23 2 -23 18 0 16
5 21 23 18 12 -2 22 -10 22 -18z"/>
<path d="M5018 2953 c-25 -6 -43 -59 -30 -88 29 -63 111 -28 103 45 -2 15 -38
51 -50 49 -3 -1 -13 -3 -23 -6z m44 -30 c33 -29 16 -73 -28 -73 -32 0 -47 53
-22 78 16 16 28 15 50 -5z"/>
<path d="M4828 2895 c17 -61 32 -66 46 -17 12 41 22 40 36 -4 13 -39 31 -41
40 -3 18 68 20 79 11 79 -6 0 -13 -16 -17 -35 -8 -45 -21 -45 -30 1 -8 44 -34
43 -46 -4 -10 -38 -23 -35 -31 8 -4 16 -11 30 -15 30 -5 0 -2 -25 6 -55z"/>
<path d="M5119 2948 c-5 -26 -3 -101 3 -104 4 -3 8 4 8 15 0 33 22 36 45 8 26
-34 38 -35 23 -2 -8 19 -8 28 2 40 19 22 -5 45 -46 45 -19 0 -34 -1 -35 -2z
m60 -17 c17 -11 5 -31 -19 -31 -21 0 -34 15 -25 30 8 12 25 13 44 1z"/>
<path d="M5243 2939 c12 -7 17 -23 17 -55 0 -29 4 -43 11 -39 6 4 10 19 9 33
-4 49 0 60 18 65 9 3 -3 5 -28 6 -35 0 -41 -2 -27 -10z"/>
<path d="M5330 2895 c0 -30 5 -55 10 -55 6 0 10 12 10 26 0 22 4 25 27 22 19
-2 29 -10 34 -28 4 -19 7 -11 10 28 4 53 -6 85 -13 40 -2 -17 -11 -24 -30 -26
-24 -3 -28 0 -28 22 0 14 -4 26 -10 26 -5 0 -10 -25 -10 -55z"/>
<path d="M185 2876 l40 -13 -38 -24 c-20 -13 -37 -27 -37 -31 0 -5 28 -8 62
-8 63 0 72 15 13 22 l-30 3 38 23 c20 13 37 28 37 33 0 5 -28 9 -62 8 l-63 -1
40 -12z"/>
<path d="M3210 2820 c0 -22 5 -40 10 -40 6 0 10 18 10 40 0 22 -4 40 -10 40
-5 0 -10 -18 -10 -40z"/>
<path d="M4665 2850 c3 -5 8 -10 11 -10 2 0 4 5 4 10 0 6 -5 10 -11 10 -5 0
-7 -4 -4 -10z"/>
<path d="M195 2770 l-50 -6 53 -8 c33 -5 58 -4 64 2 14 14 -9 18 -67 12z"/>
<path d="M4537 2773 c-10 -10 -8 -93 2 -93 5 0 11 9 14 19 2 11 15 21 28 24
22 4 22 4 -3 6 -36 1 -39 31 -4 31 14 0 28 5 31 10 7 11 -57 14 -68 3z"/>
<path d="M4679 2737 c-1 -26 -2 -53 -3 -59 -1 -8 14 -14 39 -15 31 -1 34 0 15
6 -21 6 -25 14 -28 51 -5 63 -22 76 -23 17z"/>
<path d="M4750 2770 c0 -6 7 -10 15 -10 11 0 15 -12 15 -44 0 -58 18 -69 22
-14 2 36 7 44 25 46 24 3 38 -26 31 -64 -3 -16 4 -19 42 -21 40 -1 41 0 11 5
-19 4 -36 12 -38 19 -5 14 33 37 47 28 6 -3 10 -1 10 4 0 6 -14 11 -31 11 -38
0 -35 24 4 28 15 2 27 7 27 12 0 4 -40 8 -90 9 -52 0 -90 -4 -90 -9z"/>
<path d="M4977 2774 c-11 -11 -8 -116 3 -109 5 3 7 12 4 19 -11 29 19 29 42 1
26 -33 42 -29 22 5 -10 18 -10 24 0 27 13 5 17 39 5 46 -17 10 -69 17 -76 11z
m58 -34 c0 -8 -7 -16 -15 -17 -22 -4 -44 13 -35 26 10 17 50 9 50 -9z"/>
<path d="M4630 2720 c0 -27 5 -50 10 -50 6 0 10 23 10 50 0 28 -4 50 -10 50
-5 0 -10 -22 -10 -50z"/>
<path d="M3210 2711 c0 -22 5 -43 10 -46 6 -4 10 12 10 39 0 25 -4 46 -10 46
-5 0 -10 -18 -10 -39z"/>
<path d="M155 2650 c3 -5 19 -7 35 -3 42 8 39 -13 -5 -38 -19 -12 -32 -25 -29
-30 7 -12 114 -12 114 0 0 6 -17 11 -37 13 l-38 3 37 25 c21 14 38 28 38 33 0
4 -27 7 -61 7 -36 0 -58 -4 -54 -10z"/>
<path d="M3217 2643 c-11 -10 -8 -83 3 -83 6 0 10 20 10 45 0 46 -2 50 -13 38z"/>
<path d="M4395 2590 c3 -5 13 -10 21 -10 10 0 14 -12 14 -45 0 -25 5 -45 10
-45 6 0 10 20 10 45 0 31 5 47 18 54 13 8 6 10 -31 11 -30 0 -46 -4 -42 -10z"/>
<path d="M4578 2578 c-4 -31 -47 -38 -55 -9 -10 38 -23 22 -23 -29 0 -27 5
-50 10 -50 6 0 10 12 10 26 0 22 4 25 27 22 22 -2 29 -9 33 -33 7 -42 18 -19
18 38 0 49 -14 74 -20 35z"/>
<path d="M4680 2580 c-24 -24 -25 -48 -4 -78 17 -24 62 -30 82 -10 21 21 15
75 -10 92 -30 21 -44 20 -68 -4z m67 -19 c14 -22 7 -57 -14 -65 -23 -9 -53 12
-53 37 0 45 45 63 67 28z"/>
<path d="M4797 2593 c-11 -10 -8 -101 3 -108 6 -4 10 5 10 19 0 34 23 33 48
-1 23 -32 40 -26 20 6 -10 16 -10 23 0 33 16 16 15 23 -4 42 -15 16 -65 22
-77 9z m64 -28 c0 -5 -12 -11 -26 -13 -18 -2 -25 1 -25 13 0 12 7 15 25 13 14
-2 26 -7 26 -13z"/>
<path d="M4967 2593 c-4 -3 -7 -30 -7 -60 l0 -53 34 0 c37 0 66 28 66 61 0 33
-72 73 -93 52z m61 -25 c18 -18 14 -56 -7 -68 -34 -18 -41 -11 -41 35 0 37 3
45 18 45 10 0 23 -5 30 -12z"/>
<path d="M5084 2588 c-9 -13 -7 -99 2 -107 5 -4 25 -4 44 0 l35 6 -31 2 c-17
0 -33 4 -37 7 -12 12 6 34 29 34 13 0 24 5 24 10 0 6 -11 10 -25 10 -38 0 -32
28 8 32 l32 3 -38 6 c-21 3 -40 2 -43 -3z"/>
<path d="M4263 2573 c-12 -29 -8 -92 5 -105 10 -10 11 -3 6 33 -4 28 -2 55 5
68 8 14 8 21 1 21 -6 0 -14 -8 -17 -17z"/>
<path d="M4323 2557 c-29 -42 -29 -47 2 -47 14 0 25 -4 25 -10 0 -5 5 -10 11
-10 6 0 9 20 7 50 -2 27 -7 50 -13 50 -5 0 -20 -15 -32 -33z m27 -17 c0 -5 -4
-10 -10 -10 -5 0 -10 5 -10 10 0 6 5 10 10 10 6 0 10 -4 10 -10z"/>
<path d="M5190 2535 c0 -30 5 -55 10 -55 6 0 10 11 10 25 0 32 13 32 39 -2 12
-14 24 -23 28 -20 3 4 0 14 -7 22 -11 13 -11 20 1 41 16 31 2 44 -48 44 l-33
0 0 -55z m65 25 c0 -8 -10 -16 -22 -18 -18 -3 -23 2 -23 18 0 16 5 21 23 18
12 -2 22 -10 22 -18z"/>
<path d="M5311 2571 c7 -14 9 -45 6 -75 l-6 -51 16 31 c17 35 13 68 -12 99
-16 19 -16 19 -4 -4z"/>
<path d="M150 2540 c0 -6 27 -10 61 -10 37 0 58 4 54 10 -3 6 -31 10 -61 10
-30 0 -54 -4 -54 -10z"/>
<path d="M3217 2533 c-11 -10 -8 -83 3 -83 6 0 10 20 10 45 0 46 -2 50 -13 38z"/>
<path d="M202 2484 c-29 -13 -51 -28 -48 -32 3 -5 24 -17 46 -27 33 -15 38
-20 26 -27 -18 -10 -22 -48 -6 -48 6 0 10 5 10 10 0 6 5 10 10 10 14 0 13 -43
-2 -58 -19 -19 -45 -14 -62 10 -14 20 -14 24 -1 45 16 24 7 31 -13 11 -21 -21
-14 -66 12 -83 53 -35 112 15 89 76 -6 16 -7 29 -2 29 17 0 9 18 -11 23 -26 7
-24 58 2 65 10 2 18 8 18 13 0 13 -8 11 -68 -17z m18 -23 c0 -14 -18 -23 -30
-16 -6 4 -8 11 -5 16 8 12 35 12 35 0z"/>
<path d="M3217 2423 c-11 -10 -8 -83 3 -83 6 0 10 20 10 45 0 46 -2 50 -13 38z"/>
<path d="M3210 2275 c0 -25 5 -45 10 -45 6 0 10 20 10 45 0 25 -4 45 -10 45
-5 0 -10 -20 -10 -45z"/>
<path d="M3210 2165 c0 -25 5 -45 10 -45 6 0 10 20 10 45 0 25 -4 45 -10 45
-5 0 -10 -20 -10 -45z"/>
<path d="M200 2048 c0 -79 -2 -306 -5 -505 -3 -242 -2 -363 5 -363 6 0 10 113
11 328 0 180 3 407 5 505 3 119 1 177 -6 177 -6 0 -10 -50 -10 -142z"/>
<path d="M3210 2060 c0 -22 5 -40 10 -40 6 0 10 18 10 40 0 22 -4 40 -10 40
-5 0 -10 -18 -10 -40z"/>
<path d="M3210 1956 c0 -25 5 -46 10 -46 6 0 10 18 10 39 0 22 -4 43 -10 46
-6 4 -10 -12 -10 -39z"/>
<path d="M3210 1846 c0 -25 5 -46 10 -46 6 0 10 18 10 39 0 22 -4 43 -10 46
-6 4 -10 -12 -10 -39z"/>
<path d="M3210 1735 c0 -28 4 -44 10 -40 6 3 10 21 10 40 0 19 -4 37 -10 40
-6 4 -10 -12 -10 -40z"/>
<path d="M3210 1626 c0 -30 4 -45 10 -41 11 7 8 70 -3 82 -4 3 -7 -15 -7 -41z"/>
<path d="M3210 1514 c0 -27 4 -43 10 -39 6 3 10 24 10 46 0 21 -4 39 -10 39
-5 0 -10 -21 -10 -46z"/>
<path d="M3210 1410 c0 -22 5 -40 10 -40 6 0 10 18 10 40 0 22 -4 40 -10 40
-5 0 -10 -18 -10 -40z"/>
<path d="M3210 1300 c0 -22 4 -40 10 -40 5 0 9 18 8 40 -1 22 -5 40 -10 40 -4
0 -8 -18 -8 -40z"/>
<path d="M3210 1189 c0 -24 4 -38 10 -34 6 3 10 22 10 41 0 19 -4 34 -10 34
-5 0 -10 -18 -10 -41z"/>
<path d="M3193 1035 c-11 -18 -4 -95 8 -95 5 0 10 12 10 28 1 15 3 39 5 55 3
29 -10 36 -23 12z"/>
<path d="M3242 958 c-26 -26 0 -77 33 -64 22 8 18 25 -5 19 -15 -4 -20 0 -20
16 0 15 6 21 21 21 11 0 17 5 14 10 -8 14 -28 13 -43 -2z"/>
<path d="M1951 743 c0 -44 2 -53 9 -36 5 12 19 25 32 29 l23 8 -24 6 c-37 9
-38 30 -2 30 16 0 33 5 36 10 4 6 -10 10 -34 10 l-41 0 1 -57z"/>
<path d="M2051 743 c0 -45 2 -53 9 -35 12 29 34 28 55 -4 19 -30 32 -26 16 5
-9 15 -8 26 1 40 17 28 -5 51 -48 51 l-34 0 1 -57z m69 21 c0 -9 -11 -14 -30
-14 -33 0 -43 26 -12 32 24 6 42 -2 42 -18z"/>
<path d="M2177 793 c-4 -3 -7 -30 -7 -60 l0 -53 40 0 c22 0 40 5 40 11 0 6
-14 9 -32 7 -25 -2 -34 1 -36 15 -3 13 3 17 27 17 38 0 41 17 4 22 -38 4 -42
28 -4 28 16 0 33 5 36 10 7 11 -57 14 -68 3z"/>
<path d="M2290 780 c-43 -43 -14 -101 51 -105 33 -1 34 -1 37 42 4 70 -46 105
-88 63z m64 -16 c12 -32 6 -52 -19 -58 -14 -4 -30 -4 -35 -1 -11 7 -13 58 -3
68 12 13 51 7 57 -9z"/>
<path d="M2480 757 c0 -47 -19 -74 -45 -63 -10 4 -15 19 -15 51 0 25 -4 45
-10 45 -5 0 -10 -18 -10 -40 0 -68 51 -98 88 -52 14 19 16 88 2 97 -6 4 -10
-11 -10 -38z"/>
<path d="M2527 793 c-4 -3 -7 -30 -7 -60 l0 -53 48 1 c48 1 48 3 0 13 -35 8
-37 36 -4 36 14 0 28 5 31 10 4 6 -7 10 -24 10 -21 0 -31 5 -31 15 0 10 10 15
30 15 17 0 30 5 30 10 0 11 -63 14 -73 3z"/>
<path d="M2708 783 c0 -10 -2 -23 -2 -30 -3 -25 -15 -23 -36 6 -12 17 -26 31
-31 31 -5 0 -9 -25 -9 -56 0 -34 4 -53 10 -49 6 3 10 17 10 31 0 32 12 30 34
-7 10 -16 23 -28 29 -26 14 4 19 104 6 112 -5 4 -10 -2 -11 -12z"/>
<path d="M2761 774 c-12 -15 -21 -35 -21 -45 0 -24 35 -59 58 -59 24 0 58 35
43 45 -6 3 -11 2 -11 -4 0 -16 -40 -24 -55 -11 -20 16 -19 54 1 71 13 10 19
10 36 0 26 -16 39 -3 14 15 -28 20 -42 18 -65 -12z"/>
<path d="M2879 756 c12 -18 21 -43 21 -55 0 -11 5 -21 10 -21 6 0 10 10 10 21
0 12 9 37 21 55 23 38 11 47 -15 12 l-16 -23 -16 23 c-26 35 -38 26 -15 -12z"/>
<path d="M3047 783 c-11 -10 -8 -103 3 -103 6 0 10 25 10 55 0 56 -1 60 -13
48z"/>
<path d="M3091 733 l1 -58 12 34 12 34 23 -31 c12 -18 27 -32 32 -32 5 0 9 25
9 56 0 30 -4 53 -9 50 -4 -3 -6 -16 -4 -30 8 -38 -13 -39 -37 -1 -12 19 -26
35 -31 35 -5 0 -9 -26 -8 -57z"/>
<path d="M3279 786 c-8 -9 3 -106 12 -100 5 3 9 14 9 25 0 14 7 19 25 19 21 0
25 -5 25 -30 0 -16 5 -30 10 -30 6 0 10 27 10 60 0 33 -4 60 -10 60 -5 0 -10
-8 -10 -18 0 -26 -6 -30 -36 -24 -16 3 -23 10 -20 18 5 13 -7 28 -15 20z"/>
<path d="M3390 750 c0 -5 7 -10 15 -10 8 0 15 -4 15 -9 0 -5 -7 -14 -15 -21
-25 -21 -18 -40 15 -40 31 0 42 16 14 22 -14 3 -13 7 5 30 28 35 27 38 -14 38
-19 0 -35 -4 -35 -10z"/>
<path d="M4290 745 c0 -14 -44 -15 -362 -15 -200 1 -365 -3 -368 -7 -3 -4 157
-9 355 -11 341 -2 361 -3 375 -21 15 -19 16 -19 85 4 40 13 64 25 55 28 -27
10 -123 37 -132 37 -4 0 -8 -7 -8 -15z"/>
<path d="M950 740 c0 -9 795 -20 847 -11 13 2 20 7 17 12 -7 13 -864 12 -864
-1z"/>
<path d="M3730 430 c0 -47 4 -80 10 -80 6 0 10 20 10 44 0 31 5 46 16 50 26
10 34 -2 34 -50 0 -32 4 -44 15 -44 22 0 20 72 -3 100 -16 19 -22 21 -40 11
-20 -11 -22 -9 -22 19 0 16 -4 30 -10 30 -6 0 -10 -33 -10 -80z"/>
<path d="M4156 501 c-12 -19 -4 -151 9 -151 8 0 13 23 14 74 2 67 -8 101 -23
77z"/>
<path d="M840 420 c0 -83 16 -112 22 -39 2 27 9 46 21 53 23 15 37 -6 37 -56
0 -21 5 -38 10 -38 17 0 12 87 -6 104 -18 19 -20 19 -45 6 -17 -10 -19 -7 -19
20 0 16 -4 30 -10 30 -6 0 -10 -33 -10 -80z"/>
<path d="M1120 420 l0 -80 34 0 c37 0 66 28 66 62 0 27 -35 57 -59 51 -17 -4
-21 -1 -21 21 0 14 -4 26 -10 26 -6 0 -10 -33 -10 -80z m70 5 c20 -24 4 -65
-25 -65 -22 0 -25 4 -25 34 0 30 9 42 31 45 4 1 12 -6 19 -14z"/>
<path d="M1510 420 c0 -47 4 -80 10 -80 6 0 10 20 10 44 0 31 5 46 16 50 26
10 34 -2 34 -50 0 -32 4 -44 15 -44 22 0 20 72 -3 100 -16 19 -22 21 -40 11
-20 -11 -22 -9 -22 19 0 16 -4 30 -10 30 -6 0 -10 -33 -10 -80z"/>
<path d="M2350 474 c0 -21 -4 -24 -19 -19 -24 7 -61 -26 -61 -56 0 -42 18 -59
60 -57 l40 1 0 79 c0 45 -4 78 -10 78 -5 0 -10 -12 -10 -26z m-2 -77 c3 -34 1
-37 -22 -37 -30 0 -42 29 -26 60 18 34 44 21 48 -23z"/>
<path d="M3640 481 c0 -12 -5 -21 -12 -21 -9 0 -9 -3 0 -12 7 -7 12 -29 12
-50 0 -40 14 -54 47 -45 16 4 15 6 -4 12 -19 6 -23 15 -23 45 0 32 4 39 23 43
l22 4 -22 2 c-13 0 -23 7 -23 15 0 8 -4 18 -10 21 -5 3 -10 -3 -10 -14z"/>
<path d="M3960 425 c0 -43 4 -75 10 -75 6 0 10 16 10 35 0 32 2 35 29 35 17 0
33 5 36 10 4 6 -8 10 -29 10 -29 0 -36 4 -36 20 0 16 7 20 34 20 19 0 38 5 41
10 4 6 -13 10 -44 10 l-51 0 0 -75z"/>
<path d="M4090 490 c0 -5 5 -10 10 -10 6 0 10 5 10 10 0 6 -4 10 -10 10 -5 0
-10 -4 -10 -10z"/>
<path d="M4226 491 c-10 -15 -10 -94 0 -123 3 -11 15 -18 30 -18 29 0 32 16 4
23 -31 8 -29 74 3 80 22 4 22 4 0 6 -14 1 -23 9 -25 24 -2 17 -5 19 -12 8z"/>
<path d="M696 468 c-22 -31 -21 -91 3 -112 22 -20 92 -19 98 1 3 9 -4 10 -25
3 -42 -12 -72 11 -72 54 0 43 20 59 65 54 22 -2 34 0 32 6 -2 6 -22 12 -44 14
-33 2 -44 -1 -57 -20z"/>
<path d="M2510 415 l0 -75 36 0 c19 0 44 5 55 10 20 11 26 54 9 65 -6 4 -8 16
-5 26 10 30 -13 49 -56 49 l-39 0 0 -75z m78 38 c-2 -11 -14 -19 -31 -21 -22
-3 -27 1 -27 17 0 17 6 21 31 21 24 0 30 -4 27 -17z m7 -68 c0 -15 -8 -21 -32
-23 -30 -3 -33 -1 -33 23 0 24 3 26 33 23 24 -2 32 -8 32 -23z"/>
<path d="M2806 481 c-10 -15 -10 -94 0 -123 6 -19 54 -26 54 -8 0 6 -9 10 -20
10 -17 0 -20 7 -20 39 0 33 4 40 23 44 22 4 22 4 0 6 -14 1 -23 9 -25 24 -2
17 -5 19 -12 8z"/>
<path d="M2894 479 c-10 -17 -6 -97 6 -120 11 -20 50 -27 50 -9 0 6 -7 10 -15
10 -23 0 -21 77 3 83 16 4 16 5 0 6 -10 0 -18 7 -18 15 0 20 -17 29 -26 15z"/>
<path d="M3430 462 c-39 -12 -53 -68 -24 -96 40 -41 108 6 88 61 -9 27 -39 43
-64 35z m40 -32 c16 -30 3 -60 -25 -60 -18 0 -26 7 -31 25 -12 46 35 75 56 35z"/>
<path d="M4325 445 c-29 -28 -31 -42 -9 -73 10 -15 25 -22 49 -22 47 0 54 18
8 22 -52 4 -56 28 -4 28 47 0 54 17 21 50 -26 26 -36 25 -65 -5z m59 -10 c4
-11 -2 -15 -24 -15 -29 0 -38 9 -23 23 12 12 41 7 47 -8z"/>
<path d="M994 435 c-19 -19 -23 -31 -18 -48 11 -36 25 -47 60 -47 46 0 52 18
7 22 -52 4 -56 28 -4 28 47 0 54 17 21 50 -26 26 -36 25 -66 -5z m60 -10 c4
-11 -2 -15 -24 -15 -29 0 -38 9 -23 23 12 12 41 7 47 -8z"/>
<path d="M1408 453 c-39 -10 -28 -59 15 -65 12 -2 22 -10 22 -18 0 -11 -9 -14
-35 -12 -25 2 -32 0 -24 -8 6 -6 27 -10 45 -8 26 2 35 8 37 25 3 17 -5 26 -33
37 -43 18 -38 41 6 32 16 -3 29 -1 29 4 0 6 -4 10 -9 10 -5 0 -15 2 -23 4 -7
2 -20 2 -30 -1z"/>
<path d="M1680 453 c-40 -14 -53 -69 -22 -96 20 -18 82 -23 82 -7 0 6 -15 10
-34 10 -20 0 -36 6 -39 14 -5 11 4 16 36 18 36 3 42 6 39 23 -2 11 -11 26 -20
33 -17 13 -19 13 -42 5z m38 -30 c2 -9 -7 -13 -28 -13 -28 0 -31 2 -20 15 15
18 41 16 48 -2z"/>
<path d="M2018 453 c-28 -7 -21 -21 10 -19 34 1 45 -18 12 -22 -34 -5 -52 -29
-39 -53 7 -14 20 -18 49 -17 l40 1 0 49 c0 43 -3 50 -26 58 -14 6 -26 9 -27 9
-1 -1 -10 -3 -19 -6z m52 -73 c0 -15 -7 -20 -25 -20 -24 0 -34 18 -18 33 15
15 43 7 43 -13z"/>
<path d="M2181 451 c-8 -5 -20 -7 -28 -4 -10 4 -13 -8 -13 -51 0 -31 5 -56 10
-56 6 0 10 20 10 44 0 31 5 46 16 50 26 10 34 -2 34 -50 0 -32 4 -44 15 -44
20 0 20 68 -1 98 -17 24 -22 26 -43 13z"/>
<path d="M3010 447 c-18 -9 -26 -22 -28 -45 -4 -43 12 -62 54 -62 46 0 52 18
7 22 -53 4 -56 28 -3 28 37 0 41 2 38 21 -5 34 -38 51 -68 36z m48 -24 c2 -9
-7 -13 -27 -13 -30 0 -39 9 -24 24 11 10 46 3 51 -11z"/>
<path d="M3540 403 c0 -63 18 -72 22 -10 2 35 7 43 26 45 36 5 25 22 -13 20
l-35 -1 0 -54z"/>
<path d="M4090 405 c0 -30 5 -55 10 -55 6 0 10 25 10 55 0 30 -4 55 -10 55 -5
0 -10 -25 -10 -55z"/>
<path d="M4450 403 c0 -29 5 -53 10 -53 6 0 10 18 10 40 0 34 4 42 25 50 35
13 31 20 -10 18 l-35 -1 0 -54z"/>
<path d="M1250 441 c0 -5 9 -28 19 -52 15 -32 17 -48 9 -62 -10 -20 -3 -37 10
-21 8 9 62 131 62 140 0 2 -4 4 -9 4 -5 0 -15 -16 -22 -35 -7 -19 -16 -35 -20
-35 -4 0 -13 16 -19 35 -10 32 -30 49 -30 26z"/>
<path d="M1780 441 c0 -19 40 -101 48 -101 5 0 19 22 31 49 24 56 25 61 12 61
-5 0 -17 -19 -26 -42 l-18 -43 -14 43 c-13 37 -33 57 -33 33z"/>
<path d="M2662 398 l3 -53 43 -1 42 -2 0 54 c0 64 -17 73 -22 12 -2 -36 -7
-44 -25 -46 -21 -3 -23 1 -23 42 0 26 -5 46 -11 46 -6 0 -9 -21 -7 -52z"/>
<path d="M3120 393 c0 -63 18 -72 22 -10 2 35 7 43 26 45 36 5 25 22 -13 20
l-35 -1 0 -54z"/>
<path d="M3210 443 c1 -22 28 -97 37 -100 5 -2 16 16 23 39 l13 43 13 -30 c7
-16 13 -36 14 -43 0 -28 24 -4 36 39 16 53 17 59 4 59 -5 0 -12 -16 -16 -35
-7 -40 -20 -38 -29 5 -9 41 -31 38 -39 -5 -4 -19 -11 -35 -15 -35 -5 0 -12 16
-15 35 -4 19 -11 35 -16 35 -6 0 -10 -3 -10 -7z"/>
<path d="M4870 167 c0 -7 -10 -17 -22 -22 -15 -7 -23 -19 -23 -35 0 -20 6 -26
28 -28 26 -3 27 -2 27 47 0 28 -2 51 -5 51 -3 0 -5 -6 -5 -13z m-2 -49 c-5
-32 -28 -35 -28 -4 0 17 5 26 16 26 10 0 14 -7 12 -22z"/>
<path d="M4162 158 c-7 -7 -12 -21 -12 -33 0 -12 5 -26 12 -33 13 -13 68 -17
68 -4 0 4 -12 8 -27 7 -24 0 -28 4 -28 30 0 26 4 30 28 30 15 -1 27 3 27 7 0
13 -55 9 -68 -4z"/>
<path d="M4548 159 c-2 -6 -2 -26 0 -45 3 -27 8 -34 26 -33 16 1 17 2 4 6 -19
5 -24 33 -9 49 6 5 4 14 -4 21 -9 9 -15 9 -17 2z"/>
<path d="M4673 163 c12 -3 17 -15 17 -44 0 -21 5 -39 10 -39 6 0 10 18 10 39
0 29 5 41 18 44 9 3 -3 5 -28 5 -25 0 -37 -2 -27 -5z"/>
<path d="M3784 130 c3 -14 6 -31 6 -37 0 -21 18 -15 26 9 l6 21 13 -23 c13
-25 19 -20 29 23 4 19 3 26 -4 22 -5 -3 -10 -14 -10 -23 -1 -12 -5 -10 -15 8
l-15 25 -6 -24 -7 -23 -14 23 -14 24 5 -25z"/>
<path d="M3891 140 c-1 -24 11 -60 19 -60 4 0 11 10 14 23 l7 22 10 -24 c5
-13 12 -22 15 -19 10 11 22 68 14 68 -5 0 -10 -10 -13 -22 -4 -23 -4 -23 -14
2 l-11 25 -10 -25 -10 -25 -10 25 c-6 14 -11 18 -11 10z"/>
<path d="M4004 121 c7 -38 13 -48 22 -38 4 4 -1 21 -10 39 l-17 33 5 -34z"/>
<path d="M4030 129 c0 -11 5 -17 10 -14 6 3 10 -3 10 -14 0 -12 5 -21 10 -21
6 0 10 1 10 3 0 1 4 17 9 35 5 17 6 32 1 32 -5 0 -11 -10 -13 -22 l-4 -23 -8
23 c-9 28 -25 29 -25 1z"/>
<path d="M4250 115 c0 -19 5 -35 10 -35 6 0 10 16 10 35 0 19 -4 35 -10 35 -5
0 -10 -16 -10 -35z"/>
<path d="M4290 115 c0 -19 5 -35 10 -35 6 0 10 11 10 25 0 14 5 25 10 25 6 0
10 5 10 10 0 6 -9 10 -20 10 -16 0 -20 -7 -20 -35z"/>
<path d="M4354 136 c-11 -28 1 -51 26 -53 25 -3 25 -3 3 7 -13 5 -23 16 -23
25 0 9 10 20 23 25 l22 9 -23 0 c-12 1 -25 -5 -28 -13z"/>
<path d="M4423 118 c2 -28 6 -34 30 -36 25 -3 27 -1 27 33 0 22 -4 34 -10 30
-5 -3 -10 -17 -10 -31 0 -35 -28 -30 -34 6 -6 30 -6 30 -3 -2z"/>
<path d="M4513 115 c0 -22 2 -30 4 -17 2 12 2 30 0 40 -3 9 -5 -1 -4 -23z"/>
<path d="M4604 139 c-4 -7 3 -20 17 -29 l23 -18 -25 -5 c-23 -4 -23 -4 4 -6
30 -1 39 25 12 35 -8 4 -15 11 -15 16 0 6 7 8 15 4 8 -3 15 -1 15 4 0 14 -37
12 -46 -1z"/>
<path d="M4744 136 c-11 -29 0 -51 26 -51 21 0 25 5 25 30 0 24 -5 31 -23 33
-13 2 -24 -3 -28 -12z m43 -12 c8 -21 -13 -42 -28 -27 -13 13 -5 43 11 43 6 0
13 -7 17 -16z"/>
<path d="M4930 140 l25 -8 -22 -7 c-13 -4 -23 -15 -23 -26 0 -14 7 -19 30 -19
23 0 30 5 30 19 0 36 -12 51 -39 50 l-26 -1 25 -8z m20 -40 c0 -5 -7 -10 -15
-10 -8 0 -15 5 -15 10 0 6 7 10 15 10 8 0 15 -4 15 -10z"/>
<path d="M4995 120 c9 -17 13 -40 10 -50 -12 -37 4 -20 25 26 25 57 25 66 1
35 l-19 -24 -6 21 c-4 12 -12 22 -17 22 -5 0 -2 -14 6 -30z"/>
<path d="M5114 136 c-11 -28 1 -51 26 -53 25 -3 25 -3 3 7 -13 5 -23 16 -23
25 0 9 10 20 23 25 l22 9 -23 0 c-12 1 -25 -5 -28 -13z"/>
<path d="M5184 136 c-11 -29 0 -51 26 -51 21 0 25 5 25 30 0 24 -5 31 -23 33
-13 2 -24 -3 -28 -12z m43 -12 c8 -21 -13 -42 -28 -27 -13 13 -5 43 11 43 6 0
13 -7 17 -16z"/>
<path d="M5260 115 c0 -19 5 -35 10 -35 6 0 10 14 10 31 0 39 23 34 31 -7 l6
-29 4 29 c6 41 29 46 29 7 0 -17 5 -31 10 -31 12 0 13 40 2 56 -4 6 -28 12
-54 12 l-48 1 0 -34z"/>
<path d="M4110 90 c0 -5 5 -10 11 -10 5 0 7 5 4 10 -3 6 -8 10 -11 10 -2 0 -4
-4 -4 -10z"/>
<path d="M5060 90 c0 -5 5 -10 10 -10 6 0 10 5 10 10 0 6 -4 10 -10 10 -5 0
-10 -4 -10 -10z"/>
</g>
</svg>
