<?xml version="1.0" standalone="no"?>
<!DOCTYPE svg PUBLIC "-//W3C//DTD SVG 20010904//EN"
 "http://www.w3.org/TR/2001/REC-SVG-20010904/DTD/svg10.dtd">
<svg version="1.0" xmlns="http://www.w3.org/2000/svg"
 width="2551.000000pt" height="1452.000000pt" viewBox="0 0 2551.000000 1452.000000"
 preserveAspectRatio="xMidYMid meet">

<g transform="translate(0.000000,1452.000000) scale(0.100000,-0.100000)"
fill="#000000" stroke="none">
<path d="M28 14494 l-28 -15 0 -3349 0 -3348 29 29 29 29 901 0 c594 0 901 3
901 10 0 6 32 10 75 10 43 0 75 -4 75 -10 0 -7 3923 -10 11750 -10 l11750 0 0
3120 0 3120 -12735 0 -12735 0 0 189 c0 175 1 190 21 215 23 30 10 34 -33 10z
m1040 -5136 l57 -2 -57 -3 -58 -4 0 -414 0 -415 465 0 465 0 2 53 2 52 3 -52
4 -53 4485 0 4484 0 2 53 2 52 3 -52 4 -53 4485 0 4484 0 2 53 2 52 3 -52 4
-53 2712 -3 c1492 -1 -2763 -3 -9455 -5 l-12168 -2 2 2658 3 2657 2 -2232 3
-2233 58 -2z m-194 3706 c18 -17 21 -34 7 -34 -5 0 -14 7 -21 15 -24 28 -58
16 -73 -26 -5 -14 0 -16 34 -12 48 7 69 -9 69 -50 0 -39 -25 -67 -60 -67 -42
0 -65 33 -65 95 0 38 5 59 19 74 23 25 68 28 90 5z m13881 -810 c20 -117 25
-116 45 9 7 43 16 80 20 82 4 3 13 -23 19 -58 7 -34 16 -86 22 -114 l10 -53
134 0 133 0 16 -72 c9 -40 19 -90 23 -111 5 -32 9 -38 27 -35 18 3 23 16 41
111 l20 107 72 0 71 0 10 -47 c6 -27 16 -76 22 -110 l13 -63 87 0 87 0 17 193
c10 105 21 208 26 227 9 43 6 52 56 -205 20 -104 39 -195 41 -202 3 -8 23 -13
49 -13 41 0 43 -2 49 -32 24 -132 33 -171 38 -158 3 8 23 102 43 208 20 105
40 192 44 192 4 0 12 -30 19 -67 7 -38 16 -85 22 -105 9 -37 11 -38 54 -38
l43 0 18 -100 c9 -54 21 -97 25 -95 3 3 10 26 14 52 3 27 11 69 17 96 l10 47
48 0 48 0 18 -100 c9 -54 20 -97 24 -95 4 3 10 24 13 47 3 24 11 67 17 96 l12
52 48 0 48 0 18 -100 c9 -56 20 -97 24 -93 4 4 12 42 19 83 18 106 19 110 46
110 28 0 27 2 53 -140 l17 -95 65 -3 65 -3 18 103 c25 139 25 138 53 138 13 0
24 -1 25 -2 0 -2 10 -55 22 -118 19 -99 25 -115 43 -118 18 -3 22 7 38 105 23
133 23 133 52 133 16 0 25 -7 28 -22 3 -13 12 -59 21 -102 8 -44 17 -81 18
-82 2 -2 11 44 21 101 19 103 19 105 46 105 27 0 28 -2 45 -105 10 -58 20
-104 21 -102 2 2 11 41 19 88 9 46 18 92 21 102 5 15 19 17 119 17 l113 0 11
-50 c6 -28 16 -82 22 -121 11 -62 14 -70 33 -67 17 3 23 18 41 115 11 61 23
114 26 117 3 3 13 -40 23 -97 26 -151 14 -137 116 -137 l88 0 6 -27 c3 -16 11
-57 17 -93 6 -36 15 -68 18 -72 4 -4 25 90 46 210 l40 217 50 0 50 0 20 -110
20 -110 20 110 20 110 72 3 71 3 18 -100 c10 -55 21 -97 25 -93 4 4 14 47 23
96 9 49 18 91 20 93 2 3 12 -41 22 -96 10 -55 21 -98 25 -96 3 3 12 39 19 82
20 127 25 129 45 16 10 -56 22 -100 26 -98 3 3 10 26 14 52 3 27 11 69 17 96
l10 47 48 0 48 0 22 -120 c19 -101 25 -120 40 -120 22 0 23 5 46 138 17 100
18 102 44 102 27 0 28 -2 50 -120 l22 -120 87 0 88 0 18 108 c10 59 21 113 25
121 4 7 15 -30 25 -85 9 -55 19 -109 22 -121 5 -22 8 -23 137 -23 l132 0 18
108 c10 59 22 113 26 120 4 8 15 -33 25 -93 20 -117 25 -116 45 5 7 41 16 81
20 88 4 8 15 -32 25 -92 10 -58 20 -104 22 -103 2 2 10 40 18 83 26 139 26
139 50 19 l21 -110 18 205 c11 113 22 209 26 213 4 5 11 -9 14 -30 4 -21 14
-68 22 -105 14 -60 18 -68 38 -68 21 0 24 -7 35 -70 6 -38 16 -92 22 -120 l11
-51 41 3 41 3 21 115 21 115 50 3 49 3 18 -103 c26 -148 22 -140 70 -136 l41
3 21 115 c19 111 21 115 47 118 24 3 27 -1 36 -45 6 -26 14 -69 17 -96 4 -26
10 -49 14 -51 4 -3 15 40 25 95 18 99 18 100 44 97 26 -3 28 -7 48 -113 l20
-110 19 113 c11 61 22 112 25 112 3 0 15 -51 25 -112 l19 -113 21 110 c19 105
21 110 46 113 30 4 28 9 54 -140 l17 -98 43 0 42 0 18 103 c28 155 30 156 55
19 l23 -122 63 0 c35 0 64 1 64 3 9 51 49 241 50 237 1 -3 12 -54 23 -115 l22
-110 19 113 c11 62 22 109 26 105 4 -4 15 -53 24 -108 10 -55 19 -101 20 -102
1 -2 11 47 21 108 10 60 21 106 25 102 4 -4 13 -44 20 -88 21 -127 25 -128 45
-12 l18 107 48 0 c55 0 49 11 77 -140 l17 -95 68 -3 c76 -3 67 9 92 -126 8
-43 16 -81 18 -83 2 -1 12 44 22 102 16 97 19 105 41 105 24 0 27 8 55 168 7
41 16 68 20 60 4 -7 15 -62 25 -121 17 -98 20 -108 38 -105 18 3 24 19 43 118
12 63 22 116 22 118 1 1 12 2 25 2 28 0 28 1 53 -138 16 -92 20 -102 38 -100
16 3 22 18 37 98 28 151 22 140 77 140 l48 0 18 -105 c10 -58 19 -104 21 -102
2 2 11 44 20 93 9 49 20 95 23 102 4 7 24 -83 45 -200 21 -117 42 -217 46
-221 4 -4 15 37 24 93 l18 100 113 0 113 0 22 122 c26 137 28 136 55 -19 17
-95 20 -103 41 -103 24 0 23 3 45 -120 6 -36 15 -68 19 -73 3 -4 14 38 24 93
16 93 19 100 41 100 21 0 24 7 40 98 9 53 19 108 23 122 l5 25 8 -25 c4 -14
15 -69 24 -122 l17 -98 289 0 c265 0 288 1 293 18 2 9 12 63 22 120 17 101 18
102 46 102 22 0 28 -5 28 -22 1 -48 38 -399 42 -404 3 -3 9 17 13 43 3 26 11
69 17 96 l10 47 276 -2 277 -3 -272 -2 c-248 -3 -272 -5 -277 -21 -3 -9 -12
-60 -22 -112 -9 -52 -20 -99 -23 -103 -4 -4 -15 77 -25 180 -27 298 -26 293
-46 293 -14 0 -21 -18 -35 -97 -9 -54 -19 -108 -22 -120 l-5 -23 -298 0 -297
0 -19 112 -19 113 -19 -113 c-18 -104 -21 -112 -42 -112 -24 0 -27 -9 -55
-167 -7 -40 -15 -73 -18 -73 -4 0 -14 46 -24 103 -24 136 -25 137 -51 137 -20
0 -24 8 -36 83 -22 139 -24 141 -44 24 l-19 -107 -112 0 c-109 0 -113 -1 -118
-22 -3 -13 -13 -67 -23 -120 -10 -53 -20 -95 -24 -93 -3 2 -24 101 -45 219
-22 119 -43 210 -46 203 -4 -7 -12 -46 -19 -87 -7 -41 -16 -81 -20 -89 -4 -8
-17 36 -30 108 l-23 122 -41 -3 -41 -3 -22 -115 c-12 -63 -22 -116 -22 -118
-1 -2 -13 -2 -28 0 -26 3 -28 7 -48 118 -18 99 -24 115 -40 115 -17 0 -22 -14
-37 -95 -27 -146 -25 -142 -55 -138 -26 3 -28 7 -44 96 -9 51 -18 95 -21 97
-2 3 -12 -40 -22 -95 -16 -93 -19 -100 -41 -100 -21 0 -24 -8 -45 -121 -12
-66 -25 -117 -29 -114 -3 4 -15 57 -26 118 l-20 112 -67 3 c-38 2 -68 4 -69 5
0 1 -10 54 -22 117 l-22 115 -41 3 -41 3 -23 -122 c-13 -72 -26 -116 -30 -108
-4 8 -13 48 -20 89 -17 107 -24 111 -39 23 -18 -114 -22 -128 -31 -112 -4 8
-13 48 -20 89 -7 41 -15 81 -19 88 -4 7 -13 -24 -21 -70 -7 -46 -16 -92 -20
-103 -7 -20 -7 -20 -13 0 -3 11 -11 53 -18 93 -7 40 -15 75 -19 77 -4 2 -13
-28 -19 -68 -22 -128 -13 -117 -95 -117 l-72 0 -20 108 -19 107 -20 -107 -19
-108 -51 0 -52 0 -17 103 c-22 132 -24 137 -45 137 -15 0 -21 -18 -36 -102
-25 -144 -30 -154 -43 -93 -6 28 -13 71 -17 98 -9 58 -20 60 -28 5 -3 -24 -11
-68 -18 -98 -14 -67 -19 -57 -44 88 -15 84 -21 102 -36 102 -18 0 -27 -29 -50
-170 -7 -39 -15 -70 -18 -70 -4 0 -15 48 -25 108 -22 128 -23 132 -45 132 -14
0 -21 -19 -35 -102 -25 -147 -20 -138 -76 -138 -55 0 -47 -13 -76 143 l-18 97
-41 0 -40 0 -18 -102 c-26 -148 -21 -138 -77 -138 l-48 0 -22 120 c-21 111
-24 120 -45 120 -20 0 -25 9 -43 93 -11 50 -21 81 -21 67 -3 -60 -40 -392 -44
-397 -3 -2 -13 41 -23 97 -10 55 -21 95 -24 88 -4 -7 -13 -47 -20 -88 -19
-115 -26 -115 -46 -1 -10 56 -21 96 -24 89 -4 -7 -13 -47 -20 -88 -19 -115
-26 -115 -46 -2 -9 56 -20 100 -22 97 -3 -2 -12 -46 -21 -97 l-17 -93 -141 -3
-141 -3 -16 98 c-10 54 -19 103 -20 108 -2 6 -12 -37 -22 -95 l-19 -105 -96
-3 -95 -3 -18 98 c-26 142 -26 143 -46 143 -15 0 -21 -17 -35 -97 -26 -148
-24 -143 -54 -143 -27 0 -28 3 -40 73 -31 173 -28 167 -71 167 -45 0 -42 5
-66 -130 -9 -52 -20 -99 -24 -103 -4 -4 -15 40 -25 99 -21 118 -23 117 -45
-23 -8 -46 -16 -83 -20 -83 -3 0 -15 48 -26 108 l-19 107 -20 -107 c-11 -60
-22 -108 -26 -108 -3 0 -11 31 -18 70 -6 38 -16 92 -22 120 l-11 50 -62 0 -63
0 -12 -72 c-7 -40 -18 -95 -23 -123 -13 -61 -18 -50 -43 93 l-18 102 -42 0
-41 0 -44 -240 c-24 -132 -46 -240 -49 -240 -4 0 -14 46 -24 103 -10 56 -21
110 -23 120 -5 14 -18 17 -94 17 l-89 0 -6 33 c-35 192 -33 190 -55 72 -20
-111 -18 -107 -48 -103 -25 3 -27 7 -44 98 -29 158 -12 141 -136 138 l-107 -3
-21 -113 c-11 -62 -23 -115 -26 -118 -3 -3 -16 49 -28 115 -19 102 -25 121
-40 121 -15 0 -22 -20 -40 -120 -13 -66 -26 -118 -29 -114 -3 3 -15 56 -27
117 -17 97 -23 112 -39 112 -17 0 -23 -15 -40 -115 -20 -111 -22 -115 -48
-118 -30 -4 -28 -8 -55 138 -15 81 -20 95 -37 95 -16 0 -22 -16 -40 -115 l-21
-115 -72 -3 c-40 -2 -72 -2 -73 0 -37 205 -45 233 -64 233 -17 0 -22 -15 -40
-112 -11 -61 -23 -114 -26 -117 -3 -3 -13 38 -23 92 -28 153 -23 142 -66 142
-21 0 -40 -6 -43 -12 -2 -7 -12 -58 -22 -113 -10 -55 -21 -104 -25 -108 -3 -4
-12 25 -19 65 -31 174 -28 168 -71 168 -45 0 -42 5 -66 -130 -9 -52 -20 -99
-23 -103 -4 -4 -13 25 -20 65 -7 40 -17 94 -23 121 l-10 47 -43 0 -43 0 -16
69 c-9 39 -16 77 -16 85 0 9 -4 16 -9 16 -8 0 -81 -354 -81 -393 0 -9 -4 -17
-8 -17 -5 0 -16 46 -26 103 -25 145 -21 137 -71 137 l-43 0 -16 73 c-9 39 -27
130 -41 201 -13 71 -26 130 -28 132 -2 2 -12 -88 -22 -201 l-18 -205 -97 0
-96 0 -19 98 c-10 53 -20 103 -22 110 -4 8 -27 12 -67 12 l-62 0 -19 -97 c-23
-124 -22 -123 -54 -123 -25 0 -27 4 -45 98 -10 53 -21 103 -23 109 -4 10 -41
13 -138 13 l-133 0 -18 100 c-10 56 -21 95 -24 88 -4 -7 -13 -47 -20 -88 -7
-41 -16 -81 -20 -89 -4 -8 -17 37 -30 108 l-22 122 -42 -3 -41 -3 -20 -112
c-11 -61 -23 -114 -27 -118 -3 -4 -14 39 -24 94 -10 56 -19 99 -21 97 -2 -2
-12 -46 -22 -97 l-18 -94 -180 -3 -180 -2 -13 -63 c-6 -34 -16 -83 -22 -109
l-10 -48 -72 0 -72 0 -13 63 c-35 172 -28 157 -72 157 -32 0 -40 -4 -44 -22
-3 -13 -13 -61 -23 -108 l-18 -85 -116 -3 -116 -3 -16 70 c-9 39 -16 77 -16
85 0 9 -4 16 -9 16 -8 0 -81 -354 -81 -393 0 -12 -8 -17 -29 -17 -32 0 -33 1
-62 168 -10 58 -16 72 -30 72 -22 0 -18 14 -64 -240 -47 -258 -42 -240 -68
-240 -21 0 -24 -11 -66 -242 -42 -230 -55 -283 -58 -238 -2 25 -32 189 -39
213 -3 9 -13 17 -23 17 -14 0 -20 -15 -30 -72 -7 -40 -17 -94 -23 -120 l-10
-48 -43 0 c-50 0 -46 7 -71 -122 l-17 -88 -52 0 -52 0 -13 73 c-22 126 -25
123 -64 -88 -21 -110 -41 -209 -45 -220 -5 -13 -15 21 -31 108 -19 105 -26
127 -41 127 -14 0 -21 -22 -40 -125 l-22 -125 -49 0 c-54 0 -48 -10 -73 124
-8 43 -16 81 -18 83 -2 1 -12 -44 -22 -102 -17 -103 -18 -105 -45 -105 -27 0
-27 2 -46 105 -10 57 -20 103 -21 101 -2 -2 -10 -39 -18 -82 -26 -139 -9 -124
-140 -124 -129 0 -115 -11 -135 105 -7 39 -16 76 -20 83 -4 8 -15 -32 -24 -87
l-18 -101 -163 0 -162 0 -19 113 -19 112 -20 -107 c-11 -59 -23 -109 -26 -112
-3 -3 -14 45 -25 107 l-19 112 -20 -110 c-20 -105 -21 -110 -47 -113 -24 -3
-27 1 -36 45 -6 26 -14 69 -17 96 -4 26 -10 49 -14 51 -4 3 -15 -40 -25 -95
-10 -55 -20 -98 -22 -96 -3 2 -14 96 -25 208 -11 112 -21 205 -23 206 -1 1
-20 -88 -41 -200 -21 -111 -41 -205 -45 -210 -3 -4 -12 28 -19 70 -7 43 -17
99 -23 126 -9 46 -10 47 -48 47 -43 0 -38 12 -71 -170 -12 -69 -29 -101 -30
-59 0 13 -8 65 -17 114 l-18 90 -18 -110 c-19 -114 -30 -144 -34 -97 -2 15
-11 68 -20 117 l-18 90 -18 -110 c-16 -96 -32 -152 -33 -113 0 7 -8 60 -18
118 l-19 105 -20 -112 c-19 -99 -32 -146 -33 -110 0 6 -8 59 -18 117 l-19 105
-20 -112 c-21 -110 -30 -140 -33 -103 -2 20 -29 176 -38 218 -5 20 -11 22 -73
22 l-68 0 -20 103 -19 102 -42 3 -41 3 -17 -78 c-27 -125 -32 -140 -39 -123
-3 8 -14 56 -24 105 l-18 90 -41 3 -41 3 -16 -73 c-9 -40 -19 -88 -22 -106 -4
-18 -9 -30 -13 -27 -3 4 -15 50 -27 103 l-20 97 -67 3 c-76 3 -67 -9 -92 126
-8 43 -16 80 -18 82 -1 2 -11 -44 -21 -101 l-19 -105 -72 0 -72 0 -12 73 c-27
150 -32 167 -51 167 -15 0 -22 -19 -40 -120 l-23 -119 -91 -3 -91 -3 -19 -102
c-11 -57 -23 -103 -27 -103 -3 0 -14 39 -23 88 -26 130 -22 124 -69 120 l-42
-3 -19 -102 -20 -103 -52 0 -51 0 -17 88 c-23 118 -25 122 -46 122 -13 0 -20
-10 -25 -37 -3 -21 -13 -68 -21 -105 -14 -59 -19 -68 -38 -68 -20 0 -24 -9
-45 -127 -26 -140 -30 -141 -51 -10 -7 43 -16 79 -20 82 -3 2 -12 -31 -19 -73
-15 -93 -22 -124 -27 -119 -2 2 -11 41 -19 88 -25 136 -25 136 -60 -58 l-6
-33 -68 0 -68 0 -12 -72 c-29 -165 -30 -168 -60 -168 -27 0 -27 1 -46 113
l-19 112 -33 -180 c-18 -99 -38 -204 -44 -232 l-10 -53 -158 0 -157 0 -18 -97
c-10 -54 -22 -104 -26 -111 -3 -8 -17 36 -30 97 l-23 111 -108 0 -107 0 -10
-47 c-6 -27 -16 -76 -22 -110 -12 -59 -14 -63 -40 -63 -26 0 -28 4 -40 63 -29
150 -31 157 -50 157 -19 0 -21 -7 -51 -158 -6 -34 -14 -60 -17 -58 -2 3 -14
52 -27 108 -18 86 -25 103 -40 103 -16 0 -22 -14 -35 -80 -29 -144 -24 -135
-79 -135 l-49 0 -18 95 c-10 52 -19 93 -21 91 -2 -1 -11 -43 -21 -92 l-18 -89
-71 -3 c-81 -3 -74 -10 -94 98 -6 36 -15 68 -18 72 -4 4 -15 -33 -25 -82 l-18
-90 -133 0 c-97 0 -134 -3 -138 -12 -2 -7 -12 -58 -22 -113 -10 -55 -21 -103
-24 -108 -4 -4 -15 77 -25 180 -28 296 -22 273 -67 273 -43 0 -39 6 -65 -120
-9 -47 -20 -88 -24 -93 -3 -4 -15 37 -25 90 -10 54 -20 104 -22 111 -3 6 -22
12 -43 12 -21 0 -40 -6 -43 -12 -2 -7 -12 -57 -22 -110 l-19 -98 -72 0 -72 0
-10 48 c-6 26 -16 75 -22 110 -10 49 -16 62 -31 62 -20 0 -22 -5 -45 -125 -9
-49 -22 -94 -28 -100 -6 -5 -8 -6 -5 -2 6 7 -6 74 -36 205 -4 18 -12 22 -44
22 l-39 0 -16 -67 c-8 -38 -18 -87 -22 -111 -8 -50 -19 -62 -22 -24 -1 15 -10
61 -20 102 l-18 75 -18 -95 c-19 -96 -30 -127 -33 -89 -2 25 -21 120 -34 172
l-10 37 -63 0 -62 0 -19 -97 c-23 -125 -22 -123 -54 -123 -26 0 -28 3 -40 77
-21 123 -25 125 -45 19 -10 -53 -23 -99 -30 -103 -6 -3 -8 -3 -5 1 3 3 -4 55
-15 114 l-22 107 -67 3 c-60 3 -67 5 -72 25 -2 12 -12 114 -21 226 l-18 204
-18 -94 c-10 -52 -29 -201 -42 -332 -13 -131 -26 -240 -29 -243 -2 -3 -25 98
-49 223 l-44 228 -45 3 -46 3 -17 97 c-29 158 -18 142 -95 142 l-68 0 -22 125
c-21 117 -24 125 -46 125 -21 0 -24 8 -40 92 -20 101 -24 99 -45 -19 -13 -70
-14 -73 -41 -73 -31 0 -37 13 -60 143 l-12 67 -47 0 -47 0 -17 103 c-10 56
-20 110 -22 120 -5 15 -20 17 -139 17 l-133 0 -6 28 c-3 15 -11 56 -17 92 -6
36 -15 68 -18 72 -4 4 -15 -37 -25 -92 -17 -98 -18 -100 -45 -100 -26 0 -28 3
-40 78 -7 42 -17 98 -23 125 l-10 47 -128 0 -128 0 -10 -47 c-6 -27 -16 -82
-23 -123 -12 -76 -24 -106 -26 -70 -2 20 -29 176 -38 218 -4 15 -13 22 -28 22
-21 0 -24 8 -40 103 -24 133 -25 137 -46 137 -14 0 -20 -19 -35 -107 -10 -60
-22 -114 -26 -122 -8 -16 -12 -4 -31 106 -6 40 -15 70 -19 68 -4 -3 -13 -40
-20 -83 -14 -94 -20 -105 -51 -100 -22 3 -25 12 -45 116 -11 62 -24 115 -27
118 -20 20 -35 -12 -52 -108 -10 -56 -20 -109 -22 -115 -4 -9 -33 -13 -98 -13
l-93 0 -18 99 c-10 55 -20 98 -23 96 -2 -3 -11 -46 -20 -97 -17 -92 -17 -93
-46 -93 l-29 0 -21 115 c-18 99 -24 115 -40 115 -16 0 -22 -16 -39 -112 -12
-61 -24 -114 -27 -118 -4 -3 -17 48 -29 114 l-22 121 -63 0 -63 0 -22 -120
c-22 -119 -22 -120 -50 -120 -27 0 -27 1 -50 120 l-22 119 -91 4 -92 3 96 2
95 2 18 -97 c26 -142 26 -143 46 -143 19 0 24 17 51 168 l12 72 72 0 72 0 18
-105 c10 -58 20 -104 21 -102 2 2 11 39 19 83 9 43 18 89 21 102 3 15 12 22
29 22 27 0 27 0 52 -137 16 -92 20 -103 38 -103 19 0 23 11 40 110 10 61 21
113 25 115 5 3 13 -25 20 -63 6 -37 16 -89 22 -115 l10 -48 86 3 87 3 17 95
c26 142 25 140 52 140 26 0 29 -7 57 -168 11 -65 15 -73 33 -70 18 3 23 17 41
116 10 61 22 112 26 112 3 0 14 -48 25 -106 20 -116 23 -114 45 30 13 83 14
86 40 86 30 0 28 7 55 -142 16 -89 20 -98 40 -98 24 0 26 -4 45 -122 7 -43 16
-78 19 -78 4 0 14 45 24 100 l18 100 138 0 138 0 23 -125 c19 -104 25 -125 40
-125 18 0 27 30 50 170 7 39 15 70 18 70 4 0 14 -46 24 -102 10 -57 21 -111
23 -120 5 -16 20 -18 139 -18 130 0 133 -1 138 -22 3 -13 13 -67 22 -120 l17
-97 46 -3 46 -3 21 -100 c17 -86 23 -100 41 -103 19 -3 23 5 39 90 28 146 27
146 66 -39 9 -45 14 -53 33 -53 21 0 24 -9 45 -125 l23 -125 68 0 67 0 23
-120 22 -120 43 0 c52 0 42 24 92 -235 l38 -200 21 218 c21 207 61 463 72 453
2 -3 14 -110 26 -238 l21 -233 67 -3 c75 -3 69 3 89 -102 6 -36 15 -71 18 -78
4 -7 15 31 25 84 11 57 22 91 26 83 4 -8 16 -58 26 -112 16 -88 20 -98 38 -95
17 3 23 18 41 108 l21 105 71 3 71 3 17 -78 c24 -115 26 -116 46 -23 11 47 21
90 22 95 2 6 12 -26 21 -70 25 -118 27 -118 49 -17 l20 92 47 0 48 0 10 -47
c6 -27 14 -65 17 -86 10 -51 21 -54 29 -7 3 22 11 63 17 91 10 46 13 50 37 47
25 -3 28 -9 44 -88 10 -47 20 -95 23 -107 5 -21 11 -23 69 -23 l63 0 13 63 c6
34 16 83 22 110 l10 47 48 0 48 0 11 -50 c6 -27 14 -68 17 -90 8 -47 19 -44
29 7 3 21 11 59 17 86 l10 47 49 0 c40 0 49 -3 49 -17 1 -38 39 -385 43 -389
2 -3 7 15 10 38 3 24 11 67 17 96 l12 52 133 0 133 0 16 68 c8 37 18 86 22
110 4 23 9 40 13 37 3 -4 15 -52 26 -108 l21 -102 65 -3 65 -3 18 98 c24 130
30 138 45 62 7 -35 17 -86 23 -112 l10 -48 41 3 42 3 17 85 c28 136 26 130 53
130 26 0 25 2 51 -115 l17 -80 20 98 c19 94 20 97 47 97 26 0 28 -4 40 -62 29
-151 31 -158 50 -158 19 0 21 7 50 158 l13 62 116 0 117 0 19 -95 c10 -52 20
-93 22 -92 2 2 11 44 21 93 l18 89 156 3 c138 2 157 5 162 20 3 9 23 116 45
236 23 121 43 221 45 223 4 5 17 -52 37 -164 10 -58 16 -73 30 -73 22 0 23 4
45 133 l18 107 67 0 c78 0 70 -12 95 138 10 56 20 102 24 102 3 0 15 -50 25
-112 l20 -112 19 112 c11 62 22 112 26 112 3 0 12 -37 20 -82 23 -142 25 -143
45 -20 18 104 21 112 42 112 25 0 32 19 54 143 12 63 14 67 40 67 30 0 26 10
59 -152 l11 -58 43 0 43 0 17 88 c25 130 21 122 76 122 l48 0 11 -50 c6 -27
14 -68 17 -90 9 -53 18 -41 33 40 20 108 11 100 111 100 83 0 88 1 93 23 3 12
13 66 23 120 17 94 18 97 45 97 27 0 27 -2 49 -120 l22 -120 63 0 63 0 22 120
c13 66 25 118 28 115 3 -3 15 -56 27 -118 l21 -112 66 -3 c74 -3 69 3 88 -97
19 -93 25 -92 44 5 l19 90 48 0 c53 0 51 4 70 -100 6 -36 15 -68 18 -72 4 -4
15 33 25 82 l18 90 48 0 c55 0 51 8 76 -122 l17 -88 67 0 c77 0 69 11 91 -122
7 -43 16 -78 19 -78 4 0 12 33 19 73 19 110 23 122 31 106 4 -8 13 -51 21 -96
7 -46 16 -83 19 -83 4 0 13 35 20 78 20 118 25 126 39 62 7 -30 15 -74 18 -97
3 -24 9 -43 13 -43 4 0 13 35 20 77 19 118 25 128 39 63 7 -30 15 -74 18 -97
8 -56 19 -54 28 5 4 26 11 69 17 97 13 60 20 48 38 -68 7 -42 16 -77 20 -77 3
0 14 45 24 100 l18 100 48 0 48 0 18 -100 c10 -55 20 -100 23 -100 3 0 24 92
45 205 22 112 42 202 45 199 3 -3 15 -99 27 -212 l20 -207 19 103 c10 56 22
99 26 95 4 -5 14 -51 23 -103 22 -124 24 -130 45 -130 15 0 21 18 36 108 10
59 21 113 25 121 8 16 12 4 31 -106 6 -40 15 -70 19 -68 4 2 13 39 20 82 7 43
16 84 20 92 9 16 11 7 35 -131 l17 -98 153 0 c150 0 153 0 158 23 3 12 13 66
23 119 10 54 20 95 23 92 3 -3 15 -56 27 -117 l20 -112 109 0 109 0 21 112
c12 62 24 115 27 118 3 3 15 -49 28 -115 18 -100 25 -120 40 -120 15 0 21 19
40 121 12 66 25 117 28 114 3 -3 15 -56 27 -118 l21 -112 41 -3 41 -3 23 125
c22 123 23 126 49 126 25 0 26 -3 46 -112 l20 -113 23 120 c41 220 64 317 71
303 4 -7 15 -55 25 -105 l17 -93 43 0 43 0 10 48 c6 26 15 73 22 105 l11 57
45 0 c24 0 44 1 45 3 0 1 10 54 22 117 21 110 23 115 49 118 24 3 27 -1 38
-50 6 -29 14 -72 17 -95 3 -24 9 -43 12 -43 7 0 82 389 81 422 0 11 10 18 27
20 29 3 25 -12 108 446 5 29 10 33 33 30 26 -3 28 -7 49 -118 12 -63 22 -116
22 -117 1 -2 9 -3 19 -3 15 0 24 33 61 225 24 124 47 225 51 225 3 0 12 -30
19 -67 7 -38 16 -85 22 -105 l10 -38 107 0 108 0 13 63 c7 34 17 83 23 110
l10 47 47 0 48 0 23 -110 22 -110 63 0 c41 0 64 4 68 13 2 6 12 56 22 110 l19
97 181 0 181 0 18 108 c10 59 22 111 26 116 5 4 16 -37 26 -93 10 -55 19 -99
21 -97 2 2 10 39 18 82 25 134 19 124 74 124 l48 0 18 -106z m-13887 -449 c2
-33 9 -63 15 -68 9 -7 9 -10 0 -14 -7 -2 -13 -13 -13 -24 0 -25 -20 -25 -27 1
-4 16 -14 20 -44 20 -50 0 -50 14 -2 91 47 78 67 76 71 -6z m-4 -1148 c30 -22
23 -64 -18 -106 -20 -20 -36 -40 -36 -44 0 -4 18 -7 40 -7 22 0 40 -4 40 -10
0 -6 -27 -10 -60 -10 -38 0 -60 4 -60 11 0 7 21 34 46 61 31 33 44 56 42 71
-4 30 -43 35 -60 8 -14 -23 -28 -28 -28 -9 0 20 32 48 55 48 11 0 29 -6 39
-13z m2 -1211 c15 -12 19 -27 19 -81 0 -54 -4 -69 -19 -81 -53 -38 -101 0
-101 81 0 81 48 119 101 81z m1120 -1007 c26 -28 26 -120 0 -148 -25 -28 -71
-27 -90 1 -24 34 -21 123 4 148 26 26 62 26 86 -1z m4314 -75 c0 -72 -3 -95
-12 -92 -9 3 -14 30 -16 76 -3 72 -8 82 -30 60 -9 -9 -12 -8 -12 4 0 16 36 47
58 47 9 1 12 -25 12 -95z m156 75 c13 -14 18 -36 18 -74 0 -63 -22 -95 -65
-95 -39 0 -59 33 -59 97 0 40 5 58 20 73 26 26 62 26 86 -1z m160 0 c13 -14
18 -36 18 -74 0 -63 -22 -95 -65 -95 -39 0 -59 33 -59 97 0 40 5 58 20 73 26
26 62 26 86 -1z m4178 8 c30 -22 23 -64 -18 -106 -20 -20 -36 -40 -36 -44 0
-4 18 -7 40 -7 22 0 40 -4 40 -10 0 -6 -27 -10 -60 -10 -38 0 -60 4 -60 11 0
7 21 34 46 61 31 33 44 56 42 71 -4 30 -43 35 -60 8 -14 -23 -28 -28 -28 -9 0
20 32 48 55 48 11 0 29 -6 39 -13z m172 -8 c13 -14 18 -36 18 -74 0 -63 -22
-95 -65 -95 -39 0 -59 33 -59 97 0 40 5 58 20 73 26 26 62 26 86 -1z m160 0
c13 -14 18 -36 18 -74 0 -63 -22 -95 -65 -95 -39 0 -59 33 -59 97 0 40 5 58
20 73 26 26 62 26 86 -1z m4166 4 c21 -19 23 -44 6 -61 -9 -9 -10 -15 -2 -20
6 -4 14 -17 18 -29 16 -51 -71 -85 -109 -43 -23 26 -11 39 15 15 39 -35 95 6
58 43 -7 7 -20 12 -30 12 -26 0 -22 18 5 22 16 2 22 10 22 28 0 30 -33 40 -51
15 -7 -9 -18 -15 -25 -13 -19 6 27 48 53 48 12 0 30 -7 40 -17z m164 -4 c13
-14 18 -36 18 -74 0 -63 -22 -95 -65 -95 -39 0 -59 33 -59 97 0 40 5 58 20 73
26 26 62 26 86 -1z m160 7 c15 -12 19 -27 19 -81 0 -54 -4 -69 -19 -81 -53
-38 -101 0 -101 81 0 81 48 119 101 81z m4172 -51 c2 -33 9 -63 15 -68 9 -7 9
-10 0 -14 -7 -2 -13 -13 -13 -24 0 -25 -20 -25 -27 1 -4 16 -14 20 -44 20 -50
0 -50 14 -2 91 47 78 67 76 71 -6z m158 51 c15 -12 19 -27 19 -81 0 -54 -4
-69 -19 -81 -53 -38 -101 0 -101 81 0 81 48 119 101 81z m160 0 c15 -12 19
-27 19 -81 0 -54 -4 -69 -19 -81 -53 -38 -101 0 -101 81 0 81 48 119 101 81z
m4184 5 c0 -6 -19 -11 -42 -13 -37 -3 -43 -6 -46 -28 -3 -23 1 -25 35 -25 30
0 40 -5 52 -27 14 -25 14 -31 1 -55 -10 -18 -26 -29 -42 -31 -33 -4 -68 13
-68 33 0 19 8 19 26 0 35 -35 85 4 62 48 -9 18 -53 23 -63 7 -3 -5 -10 -10
-16 -10 -10 0 -12 34 -3 79 6 30 9 31 55 31 27 0 49 -4 49 -9z m146 -12 c13
-14 18 -36 18 -74 0 -63 -22 -95 -65 -95 -39 0 -59 33 -59 97 0 40 5 58 20 73
26 26 62 26 86 -1z m160 7 c15 -12 19 -27 19 -81 0 -54 -4 -69 -19 -81 -53
-38 -101 0 -101 81 0 81 48 119 101 81z"/>
<path d="M800 12975 c-26 -32 13 -81 48 -59 34 22 22 74 -18 74 -10 0 -23 -7
-30 -15z"/>
<path d="M808 11790 l-26 -45 25 -3 c33 -5 35 -2 31 49 l-3 44 -27 -45z"/>
<path d="M800 9420 c-17 -32 -8 -111 13 -124 42 -26 76 73 41 122 -19 27 -40
28 -54 2z"/>
<path d="M1916 8418 c-29 -41 -13 -128 22 -128 29 0 42 21 42 68 0 76 -32 106
-64 60z"/>
<path d="M6386 8418 c-29 -41 -13 -128 22 -128 29 0 42 21 42 68 0 76 -32 106
-64 60z"/>
<path d="M6546 8418 c-29 -41 -13 -128 22 -128 29 0 42 21 42 68 0 76 -32 106
-64 60z"/>
<path d="M10896 8418 c-29 -41 -13 -128 22 -128 29 0 42 21 42 68 0 76 -32
106 -64 60z"/>
<path d="M11056 8418 c-29 -41 -13 -128 22 -128 29 0 42 21 42 68 0 76 -32
106 -64 60z"/>
<path d="M15386 8418 c-29 -41 -13 -128 22 -128 29 0 42 21 42 68 0 76 -32
106 -64 60z"/>
<path d="M15550 8420 c-17 -32 -8 -111 13 -124 42 -26 76 73 41 122 -19 27
-40 28 -54 2z"/>
<path d="M19728 8380 l-26 -45 25 -3 c33 -5 35 -2 31 49 l-3 44 -27 -45z"/>
<path d="M19880 8420 c-17 -32 -8 -111 13 -124 42 -26 76 73 41 122 -19 27
-40 28 -54 2z"/>
<path d="M20040 8420 c-17 -32 -8 -111 13 -124 42 -26 76 73 41 122 -19 27
-40 28 -54 2z"/>
<path d="M24366 8418 c-29 -41 -13 -128 22 -128 29 0 42 21 42 68 0 76 -32
106 -64 60z"/>
<path d="M24530 8420 c-17 -32 -8 -111 13 -124 42 -26 76 73 41 122 -19 27
-40 28 -54 2z"/>
<path d="M0 3700 l0 -3700 12755 0 12755 0 0 3700 0 3700 -12755 0 -12755 0 0
-3700z m1028 -2032 l57 -2 -57 -3 -58 -4 0 -509 0 -510 465 0 465 0 2 53 2 52
3 -52 4 -53 4495 0 4494 0 2 53 2 52 3 -52 4 -53 4490 0 4489 0 2 53 2 52 3
-52 4 -53 2717 -3 c1494 -1 -2767 -3 -9470 -5 l-12188 -2 2 3258 3 3257 2
-2737 3 -2738 58 -2z m-178 5277 c0 -23 -79 -175 -90 -175 -15 0 -13 4 25 80
19 38 35 74 35 80 0 5 -20 10 -45 10 -25 0 -45 5 -45 10 0 6 27 10 60 10 47 0
60 -3 60 -15z m-16 -751 c18 -17 21 -34 7 -34 -5 0 -14 7 -21 15 -24 28 -58
16 -73 -26 -5 -14 0 -16 34 -12 48 7 69 -9 69 -50 0 -39 -25 -67 -60 -67 -42
0 -65 33 -65 95 0 38 5 59 19 74 23 25 68 28 90 5z m6 -734 c0 -5 -18 -10 -40
-10 -37 0 -40 -2 -40 -28 0 -26 3 -28 30 -24 39 6 60 -12 60 -51 0 -38 -25
-67 -58 -67 -25 0 -62 25 -62 42 0 14 28 9 34 -7 13 -34 72 -6 64 31 -5 29
-33 40 -62 24 -14 -7 -27 -11 -29 -9 -2 2 -1 28 1 57 l4 52 49 0 c27 0 49 -4
49 -10z m16895 -270 c150 -31 421 -126 690 -240 476 -201 642 -264 862 -324
319 -88 500 -110 903 -110 329 -1 370 2 920 59 755 79 947 89 1500 82 431 -6
580 -13 1315 -67 226 -17 414 -30 419 -30 5 0 7 -2 4 -5 -3 -3 -191 8 -419 25
-739 54 -888 61 -1319 67 -553 7 -745 -3 -1500 -82 -550 -57 -591 -60 -920
-59 -403 0 -584 22 -903 110 -220 60 -386 123 -862 324 -271 115 -540 208
-695 242 -88 19 -136 22 -300 23 -179 0 -204 -2 -300 -27 -258 -65 -489 -194
-775 -432 -66 -55 -325 -303 -575 -551 -250 -248 -495 -485 -545 -526 -392
-329 -678 -461 -1030 -476 -225 -10 -444 34 -895 177 -312 100 -429 132 -590
164 -493 99 -905 26 -1394 -249 -152 -85 -287 -172 -529 -340 -501 -349 -707
-480 -934 -594 -359 -180 -645 -255 -968 -255 -379 0 -715 110 -1100 362 -222
144 -430 314 -865 707 -157 141 -352 313 -434 382 -640 538 -1112 743 -1886
818 -219 21 -513 33 -1050 45 -500 11 -727 21 -995 46 -237 21 -647 74 -665
85 -12 8 -11 9 5 5 38 -10 490 -65 660 -80 268 -25 495 -35 995 -46 537 -12
831 -24 1050 -45 774 -75 1246 -280 1886 -818 82 -69 277 -241 434 -382 625
-564 901 -766 1251 -918 241 -105 459 -151 714 -151 323 0 609 75 968 255 227
114 433 245 934 594 242 168 377 255 529 340 402 226 761 317 1128 286 242
-20 417 -61 856 -201 451 -143 670 -187 895 -177 352 15 638 147 1030 476 50
41 295 278 545 526 250 248 509 496 575 551 319 265 561 392 860 450 106 20
392 12 520 -16z m-16907 -525 c2 -33 9 -63 15 -68 9 -7 9 -10 0 -14 -7 -2 -13
-13 -13 -24 0 -25 -20 -25 -27 1 -4 16 -14 20 -44 20 -50 0 -50 14 -2 91 47
78 67 76 71 -6z m-7 -685 c22 -12 27 -65 7 -74 -9 -3 -8 -8 5 -16 9 -6 17 -21
17 -32 0 -55 -83 -81 -115 -36 -11 16 -12 24 -4 27 7 2 16 -4 21 -13 19 -34
88 -8 74 29 -3 9 -19 18 -36 21 -37 8 -39 22 -2 26 19 2 28 9 30 25 4 29 -33
41 -57 19 -22 -20 -31 -20 -31 -1 0 29 54 44 91 25z m3 -743 c30 -22 23 -64
-18 -106 -20 -20 -36 -40 -36 -44 0 -4 18 -7 40 -7 22 0 40 -4 40 -10 0 -6
-27 -10 -60 -10 -38 0 -60 4 -60 11 0 7 21 34 46 61 31 33 44 56 42 71 -4 30
-43 35 -60 8 -14 -23 -28 -28 -28 -9 0 20 32 48 55 48 11 0 29 -6 39 -13z m16
-823 c0 -72 -3 -95 -12 -92 -9 3 -14 30 -16 76 -3 72 -8 82 -30 60 -9 -9 -12
-8 -12 4 0 16 36 47 58 47 9 1 12 -25 12 -95z m-14 -658 c15 -12 19 -27 19
-81 0 -54 -4 -69 -19 -81 -53 -38 -101 0 -101 81 0 81 48 119 101 81z m14
-822 c0 -72 -3 -95 -12 -92 -9 3 -14 30 -16 76 -3 72 -8 82 -30 60 -9 -9 -12
-8 -12 4 0 16 36 47 58 47 9 1 12 -25 12 -95z m-110 -14 c0 -5 -18 -10 -40
-10 -22 0 -40 5 -40 10 0 6 18 10 40 10 22 0 40 -4 40 -10z m1216 -361 c26
-28 26 -120 0 -148 -25 -28 -71 -27 -90 1 -24 34 -21 123 4 148 26 26 62 26
86 -1z m4324 -75 c0 -72 -3 -95 -12 -92 -9 3 -14 30 -16 76 -3 72 -8 82 -30
60 -9 -9 -12 -8 -12 4 0 16 36 47 58 47 9 1 12 -25 12 -95z m155 76 c25 -28
26 -121 1 -149 -25 -28 -71 -27 -90 1 -24 34 -21 123 4 148 25 25 62 26 85 0z
m160 0 c25 -28 26 -121 1 -149 -25 -28 -71 -27 -90 1 -24 34 -21 123 4 148 25
25 62 26 85 0z m4186 10 c31 -17 24 -64 -16 -109 -19 -21 -35 -41 -35 -45 0
-3 18 -6 40 -6 22 0 40 -4 40 -10 0 -6 -27 -10 -60 -10 -33 0 -60 4 -60 10 0
5 21 32 46 61 29 33 44 58 42 72 -4 28 -34 34 -59 11 -25 -23 -37 -10 -14 16
20 22 46 25 76 10z m165 -4 c15 -12 19 -27 19 -81 0 -54 -4 -69 -19 -81 -53
-38 -101 0 -101 81 0 81 48 119 101 81z m160 0 c15 -12 19 -27 19 -81 0 -54
-4 -69 -19 -81 -53 -38 -101 0 -101 81 0 81 48 119 101 81z m4175 4 c22 -12
27 -65 7 -74 -9 -3 -8 -8 5 -16 39 -25 7 -90 -45 -90 -31 0 -81 41 -58 48 7 3
17 -3 22 -12 19 -34 88 -8 75 28 -4 9 -21 19 -39 24 -34 10 -32 12 20 28 7 2
12 14 10 26 -4 28 -39 36 -61 14 -19 -20 -27 -20 -27 -1 0 29 54 44 91 25z
m165 -4 c15 -12 19 -27 19 -81 0 -54 -4 -69 -19 -81 -53 -38 -101 0 -101 81 0
81 48 119 101 81z m160 0 c15 -12 19 -27 19 -81 0 -54 -4 -69 -19 -81 -53 -38
-101 0 -101 81 0 81 48 119 101 81z m4182 -51 c2 -33 9 -63 15 -68 9 -7 9 -10
0 -14 -7 -2 -13 -13 -13 -24 0 -25 -20 -25 -27 1 -4 16 -14 20 -44 20 -50 0
-50 14 -2 91 47 78 67 76 71 -6z m158 51 c15 -12 19 -27 19 -81 0 -54 -4 -69
-19 -81 -53 -38 -101 0 -101 81 0 81 48 119 101 81z m169 -6 c25 -28 26 -121
1 -149 -25 -28 -71 -27 -90 1 -24 34 -21 123 4 148 25 25 62 26 85 0z m4175
10 c0 -5 -18 -10 -40 -10 -37 0 -40 -2 -40 -28 0 -26 3 -28 30 -24 39 6 60
-12 60 -51 0 -38 -25 -67 -58 -67 -25 0 -62 25 -62 42 0 14 28 9 34 -7 13 -34
72 -6 64 31 -5 29 -33 40 -62 24 -14 -7 -27 -11 -29 -9 -2 2 -1 28 1 57 l4 52
49 0 c27 0 49 -4 49 -10z m156 -11 c13 -14 18 -36 18 -74 0 -63 -22 -95 -65
-95 -39 0 -59 33 -59 97 0 40 5 58 20 73 26 26 62 26 86 -1z m160 0 c13 -14
18 -36 18 -74 0 -63 -22 -95 -65 -95 -39 0 -59 33 -59 97 0 40 5 58 20 73 26
26 62 26 86 -1z"/>
<path d="M760 6105 c-26 -32 13 -81 48 -59 34 22 22 74 -18 74 -10 0 -23 -7
-30 -15z"/>
<path d="M768 4650 l-26 -45 25 -3 c33 -5 35 -2 31 49 l-3 44 -27 -45z"/>
<path d="M760 1730 c-17 -32 -8 -111 13 -124 42 -26 76 73 41 122 -19 27 -40
28 -54 2z"/>
<path d="M1876 538 c-29 -41 -13 -128 22 -128 29 0 42 21 42 68 0 76 -32 106
-64 60z"/>
<path d="M6356 538 c-30 -42 -15 -128 22 -128 29 0 42 21 42 68 0 76 -32 106
-64 60z"/>
<path d="M6516 538 c-30 -42 -15 -128 22 -128 29 0 42 21 42 68 0 76 -32 106
-64 60z"/>
<path d="M10870 540 c-17 -32 -8 -111 13 -124 42 -26 76 73 41 122 -19 27 -40
28 -54 2z"/>
<path d="M11030 540 c-17 -32 -8 -111 13 -124 42 -26 76 73 41 122 -19 27 -40
28 -54 2z"/>
<path d="M15370 540 c-17 -32 -8 -111 13 -124 42 -26 76 73 41 122 -19 27 -40
28 -54 2z"/>
<path d="M15530 540 c-17 -32 -8 -111 13 -124 42 -26 76 73 41 122 -19 27 -40
28 -54 2z"/>
<path d="M19718 500 l-28 -45 26 -3 c34 -5 36 -2 32 49 l-3 44 -27 -45z"/>
<path d="M19870 540 c-17 -32 -8 -111 13 -124 42 -26 76 73 41 122 -19 27 -40
28 -54 2z"/>
<path d="M20036 538 c-30 -42 -15 -128 22 -128 29 0 42 21 42 68 0 76 -32 106
-64 60z"/>
<path d="M24366 538 c-29 -41 -13 -128 22 -128 29 0 42 21 42 68 0 76 -32 106
-64 60z"/>
<path d="M24526 538 c-29 -41 -13 -128 22 -128 29 0 42 21 42 68 0 76 -32 106
-64 60z"/>
</g>
</svg>
